<?xml version="1.0" standalone="no"?>
<!DOCTYPE svg PUBLIC "-//W3C//DTD SVG 1.1//EN" "http://www.w3.org/Graphics/SVG/1.1/DTD/svg11.dtd" >
<svg xmlns="http://www.w3.org/2000/svg" xmlns:xlink="http://www.w3.org/1999/xlink" version="1.1">
<metadata>
Created by FontForge 20161116 at Tue Jun 24 14:09:49 2014
 By Jimmy Wärting
Designed for Typetype in 2014 by Ivan Gladkikh. TT Russo Sans is one of series of font families which were designed for use in web and mobile applications, print and multimedia environments. 
</metadata>
<defs>
<font id="RussoSansBold" horiz-adv-x="615" >
  <font-face 
    font-family="Russo Sans Bold"
    font-weight="400"
    font-stretch="normal"
    units-per-em="1000"
    panose-1="2 0 5 3 4 0 0 2 0 3"
    ascent="800"
    descent="-200"
    x-height="700"
    cap-height="700"
    bbox="-10 -253.75 1220 965"
    underline-thickness="50"
    underline-position="-100"
    stemh="110"
    stemv="135"
    unicode-range="U+0020-2122"
  />
<missing-glyph horiz-adv-x="280" 
 />
    <glyph glyph-name=".notdef" horiz-adv-x="280" 
 />
    <glyph glyph-name="A" unicode="A" horiz-adv-x="702" 
d="M261 680c4 10 15 20 25 20h130c10 0 21 -10 25 -20l255 -660c4 -10 -5 -20 -15 -20h-100c-15 0 -27 10 -30 20l-45 130h-310l-45 -130c-4 -10 -15 -20 -30 -20h-100c-10 0 -19 10 -15 20zM348 550l-107 -290h220l-107 290h-6z" />
    <glyph glyph-name="D" unicode="D" horiz-adv-x="740" 
d="M680 495v-290c0 -115 -90 -205 -225 -205h-345c-10 0 -20 10 -20 20v660c0 10 10 20 20 20h345c135 0 225 -90 225 -205zM545 480c0 65 -45 110 -120 110h-200v-480h210c64 0 110 45 110 120v250z" />
    <glyph glyph-name="S" unicode="S" horiz-adv-x="620" 
d="M449 180c0 155 -394 60 -394 331c0 109 80 189 210 189h280c10 0 20 -10 20 -20v-70c0 -10 -10 -20 -20 -20h-260c-56 0 -95 -40 -95 -80c0 -155 395 -60 395 -330c0 -120 -81 -200 -220 -200c-130 0 -325 50 -325 50c-15 4 -20 10 -20 20v75c0 10 10 20 20 20
c0 0 195 -50 305 -50c60 0 104 40 104 85z" />
    <glyph glyph-name="T" unicode="T" 
d="M375 590v-570c0 -10 -10 -20 -20 -20h-95c-10 0 -20 10 -20 20v570h-215c-10 0 -20 10 -20 20v70c0 10 10 20 20 20h565c10 0 20 -10 20 -20v-70c0 -10 -10 -20 -20 -20h-215z" />
    <glyph glyph-name="J" unicode="J" horiz-adv-x="515" 
d="M295 200v390h-175c-10 0 -20 10 -20 20v70c0 10 10 20 20 20h290c10 0 20 -10 20 -20v-495c0 -125 -80 -205 -220 -205c-75 0 -180 20 -180 20c-10 2 -20 10 -20 20v75c0 10 10 20 20 20c0 0 94 -20 160 -20c60 0 105 45 105 105z" />
    <glyph glyph-name="G" unicode="G" horiz-adv-x="715" 
d="M280 700h295c10 0 20 -10 20 -20v-70c0 -10 -10 -20 -20 -20h-275c-55 0 -105 -50 -105 -110v-280c0 -60 45 -105 105 -105c80 0 230 35 230 35v165h-150c-10 0 -20 10 -20 20v70c0 10 10 20 20 20h260c10 0 20 -10 20 -20v-325c0 -10 -10 -17 -20 -20
c0 0 -230 -60 -360 -60c-140 0 -220 80 -220 205v310c0 125 80 205 220 205z" />
    <glyph glyph-name="U" unicode="U" horiz-adv-x="770" 
d="M445 95c60 0 105 50 105 105v480c0 10 10 20 20 20h95c10 0 20 -10 20 -20v-495c0 -115 -85 -200 -220 -200h-160c-135 0 -220 85 -220 200v495c0 10 10 20 20 20h95c10 0 20 -10 20 -20v-480c0 -55 45 -105 105 -105h120z" />
    <glyph glyph-name="Y" unicode="Y" horiz-adv-x="671" 
d="M333 365h5l185 315c6 10 15 20 30 20h105c10 0 16 -10 10 -20l-265 -450v-210c0 -10 -10 -20 -20 -20h-95c-10 0 -20 10 -20 20v210l-265 450c-6 10 0 20 10 20h105c15 0 24 -10 30 -20z" />
    <glyph glyph-name="C" unicode="C" horiz-adv-x="640" 
d="M280 700h295c10 0 20 -10 20 -20v-70c0 -10 -10 -20 -20 -20h-275c-55 0 -105 -50 -105 -110v-280c0 -60 45 -105 105 -105c110 0 305 50 305 50c10 0 20 -10 20 -20v-75c0 -10 -5 -16 -20 -20c0 0 -195 -50 -325 -50c-140 0 -220 80 -220 205v310c0 125 80 205 220 205z
" />
    <glyph glyph-name="B" unicode="B" horiz-adv-x="715" 
d="M110 700h310c140 0 220 -80 220 -190s-95 -140 -95 -140v-5s140 -25 140 -165c0 -120 -80 -200 -245 -200h-330c-10 0 -20 10 -20 20v660c0 10 10 20 20 20zM540 205v10c0 55 -40 95 -120 95h-195v-200h195c80 0 120 40 120 95zM500 495v10c0 45 -42 85 -100 85h-175
v-180h175c58 0 100 40 100 85z" />
    <glyph glyph-name="K" unicode="K" horiz-adv-x="703" 
d="M90 20v660c0 10 10 20 20 20h95c10 0 20 -10 20 -20v-265h140l165 265c6 10 20 20 30 20h110c10 0 16 -10 10 -20l-200 -320l220 -340c6 -10 0 -20 -10 -20h-110c-10 0 -23 10 -30 20l-185 285h-140v-285c0 -10 -10 -20 -20 -20h-95c-10 0 -20 10 -20 20z" />
    <glyph glyph-name="L" unicode="L" horiz-adv-x="625" 
d="M225 680v-570h380c10 0 20 -10 20 -20v-70c0 -10 -10 -20 -20 -20h-495c-10 0 -20 10 -20 20v660c0 10 10 20 20 20h95c10 0 20 -10 20 -20z" />
    <glyph glyph-name="N" unicode="N" horiz-adv-x="780" 
d="M230 480h-5v-460c0 -10 -10 -20 -20 -20h-95c-10 0 -20 10 -20 20v660c0 10 10 20 20 20h100c15 0 23 -10 30 -20l310 -460h5v460c0 10 10 20 20 20h95c10 0 20 -10 20 -20v-660c0 -10 -10 -20 -20 -20h-100c-15 0 -23 10 -30 20z" />
    <glyph glyph-name="R" unicode="R" horiz-adv-x="733" 
d="M680 505v-50c0 -135 -135 -175 -135 -175v-5l175 -255c7 -10 0 -20 -10 -20h-110c-15 0 -24 10 -30 20l-160 240h-185v-240c0 -10 -10 -20 -20 -20h-95c-10 0 -20 10 -20 20v660c0 10 10 20 20 20h340c140 0 230 -90 230 -195zM225 370h205c70 0 115 45 115 100v20
c0 55 -45 100 -115 100h-205v-220z" />
    <glyph glyph-name="V" unicode="V" horiz-adv-x="687" 
d="M346 150l190 530c4 10 15 20 25 20h105c12 0 18 -11 15 -20l-245 -660c-4 -10 -15 -20 -25 -20h-135c-10 0 -21 10 -25 20l-245 660c-3 9 3 20 15 20h105c10 0 21 -10 25 -20l190 -530h5z" />
    <glyph glyph-name="W" unicode="W" horiz-adv-x="1047" 
d="M521 500l-140 -480c-3 -10 -10 -20 -25 -20h-125c-15 0 -22 10 -25 20l-190 660c-3 10 5 20 15 20h100c15 0 22 -10 25 -20l145 -495h5l140 495c3 10 10 20 25 20h105c15 0 22 -10 25 -20l140 -495h5l145 495c3 10 10 20 25 20h100c10 0 18 -10 15 -20l-190 -660
c-3 -10 -10 -20 -25 -20h-125c-15 0 -22 10 -25 20l-140 480h-5z" />
    <glyph glyph-name="X" unicode="X" horiz-adv-x="681" 
d="M338 270l-175 -250c-7 -10 -15 -20 -30 -20h-115c-10 0 -17 10 -10 20l240 340l-220 320c-6 10 0 20 10 20h115c15 0 23 -10 30 -20l155 -225h5l155 225c7 10 15 20 30 20h115c10 0 16 -10 10 -20l-220 -320l240 -340c7 -10 0 -20 -10 -20h-115c-15 0 -23 10 -30 20
l-175 250h-5z" />
    <glyph glyph-name="Z" unicode="Z" 
d="M45 700h525c10 0 20 -10 20 -20v-70c0 -20 -6 -30 -15 -40l-380 -453v-7h385c10 0 20 -10 20 -20v-70c0 -10 -10 -20 -20 -20h-545c-10 0 -20 10 -20 20v75c0 15 6 25 15 35l380 455v5h-365c-10 0 -20 10 -20 20v70c0 10 10 20 20 20z" />
    <glyph glyph-name="Q" unicode="Q" horiz-adv-x="735" 
d="M675 515v-330c0 -120 -80 -200 -220 -200h-20v-10c0 -45 25 -70 65 -70c45 0 105 1 105 1c10 0 20 -10 20 -20v-46c0 -12 -10 -16 -20 -20c0 0 -56 -20 -120 -20c-115 0 -180 65 -180 175v10h-25c-140 0 -220 80 -220 200v330c0 120 80 200 220 200h175
c140 0 220 -80 220 -200zM540 500c0 70 -35 105 -105 105h-135c-70 0 -105 -35 -105 -105v-300c0 -70 35 -105 105 -105h135c70 0 105 35 105 105v300z" />
    <glyph glyph-name="afii10020" unicode="&#x413;" 
d="M225 590v-570c0 -10 -10 -20 -20 -20h-95c-10 0 -20 10 -20 20v660c0 10 10 20 20 20h485c10 0 20 -10 20 -20v-70c0 -10 -10 -20 -20 -20h-370z" />
    <glyph glyph-name="afii10033" unicode="&#x41f;" horiz-adv-x="785" 
d="M560 590h-335v-570c0 -10 -10 -20 -20 -20h-95c-10 0 -20 10 -20 20v660c0 10 10 20 20 20h565c10 0 20 -10 20 -20v-660c0 -10 -10 -20 -20 -20h-95c-10 0 -20 10 -20 20v570z" />
    <glyph glyph-name="afii10018" unicode="&#x411;" horiz-adv-x="715" 
d="M610 590h-385v-160h245c130 0 215 -85 215 -200v-40c0 -105 -85 -190 -215 -190h-360c-10 0 -20 10 -20 20v660c0 10 10 20 20 20h500c10 0 20 -10 20 -20v-70c0 -10 -10 -20 -20 -20zM227 320l-2 -210h225c60 0 100 40 100 95v10c0 65 -40 105 -100 105h-223z" />
    <glyph glyph-name="afii10046" unicode="&#x42c;" horiz-adv-x="710" 
d="M670 255v-60c0 -105 -90 -195 -230 -195h-330c-10 0 -20 10 -20 20v660c0 10 10 20 20 20h95c10 0 20 -10 20 -20v-230h215c140 0 230 -90 230 -195zM420 340h-195v-230h195c70 0 115 45 115 100v30c0 55 -45 100 -115 100z" />
    <glyph glyph-name="afii10045" unicode="&#x42b;" horiz-adv-x="1005" 
d="M915 680v-660c0 -10 -10 -20 -20 -20h-95c-10 0 -20 10 -20 20v660c0 10 10 20 20 20h95c10 0 20 -10 20 -20zM660 255v-60c0 -105 -90 -195 -230 -195h-320c-10 0 -20 10 -20 20v660c0 10 10 20 20 20h95c10 0 20 -10 20 -20v-230h205c140 0 230 -90 230 -195zM410 340
h-185v-230h185c70 0 115 45 115 100v30c0 55 -45 100 -115 100z" />
    <glyph glyph-name="afii10044" unicode="&#x42a;" horiz-adv-x="780" 
d="M740 255v-60c0 -105 -90 -195 -230 -195h-325c-10 0 -20 10 -20 20v570h-145c-10 0 -20 10 -20 20v70c0 10 10 20 20 20h260c10 0 20 -10 20 -20v-230h210c140 0 230 -90 230 -195zM490 340h-190v-230h190c70 0 115 45 115 100v30c0 55 -45 100 -115 100z" />
    <glyph glyph-name="afii10021" unicode="&#x414;" horiz-adv-x="795" 
d="M210 700h445c10 0 20 -10 20 -20v-570h75c10 0 20 -10 20 -20v-210c0 -10 -10 -20 -20 -20h-95c-10 0 -20 10 -20 20v120h-500v-120c0 -10 -10 -20 -20 -20h-95c-10 0 -20 10 -20 20v210c0 10 10 20 20 20h10c45 0 90 45 100 120l60 450c1 10 10 20 20 20zM310 590
l-45 -360c-9 -75 -55 -115 -55 -115v-5h330v480h-230z" />
    <glyph glyph-name="afii10048" unicode="&#x42e;" horiz-adv-x="1010" 
d="M950 515v-330c0 -120 -80 -200 -220 -200h-140c-140 0 -220 80 -220 200v115h-145v-280c0 -10 -10 -20 -20 -20h-95c-10 0 -20 10 -20 20v660c0 10 10 20 20 20h95c10 0 20 -10 20 -20v-270h145v105c0 120 80 200 220 200h140c140 0 220 -80 220 -200zM815 500
c0 70 -35 105 -105 105h-100c-70 0 -105 -35 -105 -105v-300c0 -70 35 -105 105 -105h100c70 0 105 35 105 105v300z" />
    <glyph glyph-name="afii10049" unicode="&#x42f;" horiz-adv-x="753" 
d="M73 465v40c0 105 90 195 230 195h340c10 0 20 -10 20 -20v-660c0 -10 -10 -20 -20 -20h-95c-10 0 -20 10 -20 20v250h-185l-160 -250c-6 -10 -15 -20 -30 -20h-110c-10 0 -17 10 -10 20l175 265v5s-135 40 -135 175zM323 380h205v210h-205c-70 0 -115 -45 -115 -100v-10
c0 -55 45 -100 115 -100z" />
    <glyph glyph-name="afii10047" unicode="&#x42d;" horiz-adv-x="640" 
d="M65 700h295c140 0 220 -80 220 -205v-310c0 -125 -80 -205 -220 -205c-130 0 -325 50 -325 50c-15 4 -20 10 -20 20v75c0 10 10 20 20 20c0 0 195 -50 305 -50c60 0 105 45 105 105v100h-230c-10 0 -20 10 -20 20v70c0 10 10 20 20 20h230v70c0 60 -50 110 -105 110h-275
c-10 0 -20 10 -20 20v70c0 10 10 20 20 20z" />
    <glyph glyph-name="afii10042" unicode="&#x428;" horiz-adv-x="1115" 
d="M225 110h265v570c0 10 10 20 20 20h95c10 0 20 -10 20 -20v-570h265v570c0 10 10 20 20 20h95c10 0 20 -10 20 -20v-660c0 -10 -10 -20 -20 -20h-895c-10 0 -20 10 -20 20v660c0 10 10 20 20 20h95c10 0 20 -10 20 -20v-570z" />
    <glyph glyph-name="afii10043" unicode="&#x429;" horiz-adv-x="1145" 
d="M985 0h-875c-10 0 -20 10 -20 20v660c0 10 10 20 20 20h95c10 0 20 -10 20 -20v-570h265v570c0 10 10 20 20 20h95c10 0 20 -10 20 -20v-570h265v570c0 10 10 20 20 20h95c10 0 20 -10 20 -20v-570h75c10 0 20 -10 20 -20v-210c0 -10 -10 -20 -20 -20h-95
c-10 0 -20 10 -20 20v120z" />
    <glyph glyph-name="afii10024" unicode="&#x416;" horiz-adv-x="1061" 
d="M463 415v265c0 10 10 20 20 20h95c10 0 20 -10 20 -20v-265h125l165 265c6 10 20 20 30 20h110c10 0 16 -10 10 -20l-200 -320l220 -340c6 -10 0 -20 -10 -20h-110c-10 0 -23 10 -30 20l-185 285h-125v-285c0 -10 -10 -20 -20 -20h-95c-10 0 -20 10 -20 20v285h-125
l-185 -285c-7 -10 -20 -20 -30 -20h-110c-10 0 -16 10 -10 20l220 340l-200 320c-6 10 0 20 10 20h110c10 0 24 -10 30 -20l165 -265h125z" />
    <glyph glyph-name="afii10038" unicode="&#x424;" horiz-adv-x="985" 
d="M560 45v-65c0 -10 -10 -20 -20 -20h-100c-10 0 -15 10 -15 20v65h-155c-140 0 -220 80 -220 200v220c0 120 80 200 220 200h155v65c0 10 5 20 15 20h100c10 0 20 -10 20 -20v-65h155c140 0 220 -80 220 -200v-220c0 -120 -80 -200 -220 -200h-155zM560 555v-400h135
c70 0 105 35 105 105v190c0 70 -35 105 -105 105h-135zM425 155v400h-135c-70 0 -105 -35 -105 -105v-190c0 -70 35 -105 105 -105h135z" />
    <glyph glyph-name="afii10041" unicode="&#x427;" horiz-adv-x="745" 
d="M520 350v330c0 10 10 20 20 20h95c10 0 20 -10 20 -20v-660c0 -10 -10 -20 -20 -20h-95c-10 0 -20 10 -20 20v220h-230c-140 0 -220 80 -220 210v230c0 10 10 20 20 20h95c10 0 20 -10 20 -20v-215c0 -70 45 -115 105 -115h210z" />
    <glyph glyph-name="afii10040" unicode="&#x426;" horiz-adv-x="795" 
d="M110 0c-10 0 -20 10 -20 20v660c0 10 10 20 20 20h95c10 0 20 -10 20 -20v-570h315v570c0 10 10 20 20 20h95c10 0 20 -10 20 -20v-570h75c10 0 20 -10 20 -20v-210c0 -10 -10 -20 -20 -20h-95c-10 0 -20 10 -20 20v120h-525z" />
    <glyph glyph-name="afii10026" unicode="&#x418;" horiz-adv-x="790" 
d="M565 495h-5l-315 -475c-6 -10 -15 -20 -30 -20h-105c-10 0 -20 10 -20 20v660c0 10 10 20 20 20h95c10 0 20 -10 20 -20v-475h5l315 475c6 10 15 20 30 20h105c10 0 20 -10 20 -20v-660c0 -10 -10 -20 -20 -20h-95c-10 0 -20 10 -20 20v475z" />
    <glyph glyph-name="afii10027" unicode="&#x419;" horiz-adv-x="790" 
d="M325 910c0 -30 20 -50 50 -50h40c30 0 50 20 50 50v25c0 10 10 20 20 20h80c10 0 20 -10 20 -20v-25c0 -90 -60 -150 -155 -150h-70c-95 0 -155 60 -155 150v25c0 10 10 20 20 20h80c10 0 20 -10 20 -20v-25zM565 495h-5l-315 -475c-6 -10 -15 -20 -30 -20h-105
c-10 0 -20 10 -20 20v660c0 10 10 20 20 20h95c10 0 20 -10 20 -20v-475h5l315 475c6 10 15 20 30 20h105c10 0 20 -10 20 -20v-660c0 -10 -10 -20 -20 -20h-95c-10 0 -20 10 -20 20v475z" />
    <glyph glyph-name="afii10029" unicode="&#x41b;" horiz-adv-x="795" 
d="M235 700h450c10 0 20 -10 20 -20v-660c0 -10 -10 -20 -20 -20h-95c-10 0 -20 10 -20 20v570h-235l-45 -360c-20 -160 -105 -245 -230 -245c-30 0 -50 5 -50 5c-10 2 -20 10 -20 20v65c0 10 10 20 20 20c0 0 20 -5 40 -5c45 0 92 45 105 140l60 450c1 10 10 20 20 20z" />
    <glyph glyph-name="afii10037" unicode="&#x423;" horiz-adv-x="684" 
d="M272 175l-260 505c-5 10 0 20 14 20h106c15 0 25 -10 30 -20l190 -385h5l175 385c5 10 15 20 30 20h100c15 0 20 -10 15 -20l-235 -505c-58 -125 -125 -190 -240 -190c-40 0 -80 5 -80 5c-10 2 -20 10 -20 20v71c0 10 10 19 20 19c0 0 40 -5 65 -5c40 0 75 35 85 80z" />
    <glyph glyph-name="afii10025" unicode="&#x417;" 
d="M446 195c0 65 -46 105 -106 105h-155c-10 0 -20 10 -20 20v70c0 10 10 20 20 20h145c65 0 95 35 95 90c0 50 -39 90 -96 90h-259c-10 0 -20 10 -20 20v70c0 10 10 20 20 20h279c132 0 211 -80 211 -200c0 -110 -105 -140 -105 -140v-5s125 -35 125 -165
s-80 -210 -220 -210c-130 0 -325 50 -325 50c-10 2 -20 10 -20 20v75c0 10 10 20 20 20c0 0 195 -50 305 -50c60 0 106 40 106 100z" />
    <glyph glyph-name="exclam" unicode="!" horiz-adv-x="295" 
d="M215 405l-15 -185c-1 -10 -10 -20 -20 -20h-65c-10 0 -19 10 -20 20l-15 185v275c0 10 10 20 20 20h95c10 0 20 -10 20 -20v-275zM215 100v-75c0 -15 -9 -25 -25 -25h-85c-15 0 -25 10 -25 25v75c0 15 10 25 25 25h85c15 0 25 -10 25 -25z" />
    <glyph glyph-name="question" unicode="?" horiz-adv-x="565" 
d="M520 500v-30c0 -100 -80 -180 -250 -200v-50c-1 -10 -10 -20 -20 -20h-80c-10 0 -20 10 -20 20v130c0 10 10 19 20 20l125 20c55 10 85 40 85 90v10c0 60 -40 100 -100 100h-250c-10 0 -20 10 -20 20v70c0 10 10 20 20 20h270c140 0 220 -80 220 -200zM280 100v-75
c0 -15 -9 -25 -25 -25h-85c-15 0 -25 10 -25 25v75c0 15 10 25 25 25h85c15 0 25 -10 25 -25z" />
    <glyph glyph-name="zero" unicode="0" horiz-adv-x="690" 
d="M630 515v-330c0 -120 -80 -200 -220 -200h-130c-140 0 -220 80 -220 200v330c0 120 80 200 220 200h130c140 0 220 -80 220 -200zM495 500c0 70 -35 105 -105 105h-90c-70 0 -105 -35 -105 -105v-300c0 -70 35 -105 105 -105h90c70 0 105 35 105 105v300z" />
    <glyph glyph-name="one" unicode="1" horiz-adv-x="428" 
d="M248 700h70c10 0 20 -10 20 -20v-660c0 -10 -10 -20 -20 -20h-95c-10 0 -20 10 -20 20v545h-5l-125 -65c-9 -5 -18 0 -20 5l-30 60c-5 9 -3 15 5 20l165 100c15 9 25 15 55 15z" />
    <glyph glyph-name="two" unicode="2" horiz-adv-x="605" 
d="M35 125l265 220c74 61 115 100 115 145c0 55 -45 100 -100 100h-250c-10 0 -20 10 -20 20v70c0 10 10 20 20 20h270c140 0 225 -85 225 -195c0 -91 -72 -165 -175 -250l-170 -140v-5h325c10 0 20 -10 20 -20v-70c0 -10 -10 -20 -20 -20h-500c-10 0 -20 10 -20 20v75
c0 15 8 25 15 30z" />
    <glyph glyph-name="three" unicode="3" horiz-adv-x="605" 
d="M425 200c0 50 -50 100 -110 100h-135c-10 0 -20 10 -20 20v70c0 10 10 20 20 20h125c65 0 100 35 100 85c0 60 -35 95 -100 95h-240c-10 0 -20 10 -20 20v70c0 10 10 20 20 20h260c140 0 220 -80 220 -190c0 -120 -105 -150 -105 -150v-5s125 -30 125 -170
c0 -120 -80 -205 -220 -205c-130 0 -310 50 -310 50c-10 2 -20 10 -20 20v75c0 10 10 20 20 20c0 0 180 -50 290 -50c60 0 100 45 100 105z" />
    <glyph glyph-name="four" unicode="4" horiz-adv-x="668" 
d="M20 170v70c0 15 5 23 20 40l345 400c13 15 20 20 40 20h105c10 0 20 -10 20 -20v-420h71c10 0 17 -7 17 -17v-76c0 -10 -7 -17 -17 -17h-71v-130c0 -10 -10 -20 -20 -20h-95c-10 0 -20 10 -20 20v130h-375c-10 0 -20 10 -20 20zM410 530l-235 -265v-5h240v270h-5z" />
    <glyph glyph-name="seven" unicode="7" horiz-adv-x="550" 
d="M530 570l-245 -550c-4 -10 -10 -20 -25 -20h-100c-15 0 -19 10 -15 20l250 565v5h-365c-10 0 -20 10 -20 20v70c0 10 10 20 20 20h490c10 0 20 -10 20 -20v-70c0 -20 -10 -40 -10 -40z" />
    <glyph glyph-name="five" unicode="5" horiz-adv-x="635" 
d="M595 230v-50c0 -120 -80 -200 -220 -200c-130 0 -310 50 -310 50c-10 2 -20 10 -20 20v75c0 10 10 20 20 20c0 0 180 -50 290 -50c60 0 100 40 100 100v20c0 65 -40 105 -100 105h-255c-10 0 -20 10 -20 20v340c0 10 10 20 20 20h435c10 0 20 -10 20 -20v-70
c0 -10 -10 -20 -20 -20h-320v-160h160c140 0 220 -80 220 -200z" />
    <glyph glyph-name="six" unicode="6" horiz-adv-x="660" 
d="M480 200v15c0 70 -35 105 -105 105h-180v-120c0 -70 35 -105 105 -105h75c70 0 105 35 105 105zM615 230v-45c0 -120 -80 -200 -220 -200h-115c-140 0 -220 80 -220 200v315c0 120 80 200 220 200h260c10 0 20 -10 20 -20v-70c0 -10 -10 -20 -20 -20h-240
c-70 0 -105 -35 -105 -105v-55h200c140 0 220 -80 220 -200z" />
    <glyph glyph-name="nine" unicode="9" horiz-adv-x="690" 
d="M180 500v-30c0 -70 35 -105 105 -105h180v135c0 70 -35 105 -105 105h-75c-70 0 -105 -35 -105 -105zM465 195v60h-200c-140 0 -220 80 -220 200v60c0 120 80 200 220 200h115c140 0 220 -80 220 -200v-335c0 -120 -80 -200 -220 -200c-130 0 -280 50 -280 50
c-10 2 -20 10 -20 20v75c0 10 10 20 20 20c0 0 150 -50 260 -50c60 0 105 45 105 100z" />
    <glyph glyph-name="eight" unicode="8" horiz-adv-x="685" 
d="M280 -15c-150 0 -235 85 -235 215s130 165 130 165v5s-110 30 -110 150c0 115 80 195 220 195h115c140 0 220 -80 220 -195c0 -120 -110 -150 -110 -150v-5s130 -35 130 -165s-85 -215 -235 -215h-125zM385 95c65 0 115 50 115 105c0 65 -45 105 -115 105h-85
c-70 0 -115 -40 -115 -105c0 -55 50 -105 115 -105h85zM205 510c0 -55 40 -95 100 -95h75c60 0 100 40 100 95s-40 95 -100 95h-75c-60 0 -100 -40 -100 -95z" />
    <glyph glyph-name="quotedbl" unicode="&#x22;" horiz-adv-x="435" 
d="M140 435h-45c-10 0 -19 10 -20 20l-15 100v125c0 10 10 20 20 20h75c10 0 20 -10 20 -20v-125l-15 -100c-1 -10 -10 -20 -20 -20zM340 435h-45c-10 0 -19 10 -20 20l-15 100v125c0 10 10 20 20 20h75c10 0 20 -10 20 -20v-125l-15 -100c-1 -10 -10 -20 -20 -20z" />
    <glyph glyph-name="slash" unicode="/" horiz-adv-x="489" 
d="M457 680l-295 -660c-5 -10 -15 -20 -30 -20h-85c-15 0 -20 10 -15 20l295 660c5 10 15 20 31 20h84c15 0 20 -10 15 -20z" />
    <glyph glyph-name="numbersign" unicode="#" horiz-adv-x="730" 
d="M365 20l41 160h-160l-41 -160c-3 -10 -10 -20 -25 -20h-80c-15 0 -18 10 -15 20l41 160h-91c-10 0 -20 10 -20 20v60c0 10 10 20 20 20h116l35 140h-111c-10 0 -20 10 -20 20v60c0 10 10 20 20 20h131l40 160c2 10 10 20 25 20h80c15 0 17 -10 15 -20l-40 -160h160
l40 160c2 10 10 20 25 20h80c15 0 17 -10 15 -20l-40 -160h89c10 0 20 -10 20 -20v-60c0 -10 -10 -20 -20 -20h-109l-35 -140h104c10 0 20 -10 20 -20v-60c0 -10 -10 -20 -20 -20h-129l-41 -160c-3 -10 -10 -20 -25 -20h-80c-15 0 -18 10 -15 20zM306 420l-35 -140h160
l35 140h-160z" />
    <glyph glyph-name="dollar" unicode="$" horiz-adv-x="620" 
d="M387 780v-80h158c10 0 20 -10 20 -20v-70c0 -10 -10 -20 -20 -20h-260c-56 0 -95 -40 -95 -80c0 -155 395 -60 395 -330c0 -114 -73 -191 -198 -199v-83c0 -10 -10 -20 -20 -20h-85c-10 0 -20 10 -20 20v90c-111 13 -222 42 -222 42c-15 4 -20 10 -20 20v75
c0 10 10 20 20 20c0 0 195 -50 305 -50c60 0 104 40 104 85c0 155 -394 60 -394 331c0 108 79 187 207 189v80c0 10 10 20 20 20h85c10 0 20 -10 20 -20z" />
    <glyph glyph-name="percent" unicode="%" horiz-adv-x="890" 
d="M370 500c0 -75 -65 -140 -150 -140h-40c-85 0 -150 65 -150 140v70c0 75 65 140 150 140h40c85 0 150 -65 150 -140v-70zM270 550c0 40 -30 70 -65 70h-10c-35 0 -65 -30 -65 -70v-30c0 -40 30 -70 65 -70h10c35 0 65 30 65 70v30zM240 20l280 660c4 10 15 20 30 20h90
c10 0 14 -10 10 -20l-280 -660c-4 -10 -15 -20 -30 -20h-90c-10 0 -14 10 -10 20zM860 130c0 -75 -65 -140 -150 -140h-40c-85 0 -150 65 -150 140v70c0 75 65 140 150 140h40c85 0 150 -65 150 -140v-70zM760 180c0 40 -30 70 -65 70h-10c-35 0 -65 -30 -65 -70v-30
c0 -40 30 -70 65 -70h10c35 0 65 30 65 70v30z" />
    <glyph glyph-name="period" unicode="." horiz-adv-x="225" 
d="M180 100v-75c0 -15 -9 -25 -25 -25h-85c-15 0 -25 10 -25 25v75c0 15 10 25 25 25h85c15 0 25 -10 25 -25z" />
    <glyph glyph-name="comma" unicode="," horiz-adv-x="225" 
d="M180 100v-75c0 -15 -10 -30 -10 -30l-40 -70c-5 -9 -15 -20 -30 -20h-25c-10 0 -14 10 -10 20l30 70v5h-25c-15 0 -25 10 -25 25v75c0 15 10 25 25 25h85c15 0 25 -10 25 -25z" />
    <glyph glyph-name="hyphen" unicode="-" horiz-adv-x="515" 
d="M460 280h-405c-10 0 -20 10 -20 20v60c0 10 10 20 20 20h405c10 0 20 -10 20 -20v-60c0 -10 -10 -20 -20 -20z" />
    <glyph glyph-name="plus" unicode="+" horiz-adv-x="550" 
d="M325 550v-170h170c10 0 20 -10 20 -20v-60c0 -10 -10 -20 -20 -20h-170v-170c0 -10 -10 -20 -20 -20h-60c-10 0 -20 10 -20 20v170h-170c-10 0 -20 10 -20 20v60c0 10 10 20 20 20h170v170c0 10 10 20 20 20h60c10 0 20 -10 20 -20z" />
    <glyph glyph-name="colon" unicode=":" horiz-adv-x="245" 
d="M190 100v-75c0 -15 -9 -25 -25 -25h-85c-15 0 -25 10 -25 25v75c0 15 10 25 25 25h85c15 0 25 -10 25 -25zM190 485v-75c0 -15 -9 -25 -25 -25h-85c-15 0 -25 10 -25 25v75c0 15 10 25 25 25h85c15 0 25 -10 25 -25z" />
    <glyph glyph-name="semicolon" unicode=";" horiz-adv-x="245" 
d="M190 485v-75c0 -15 -9 -25 -25 -25h-85c-15 0 -25 10 -25 25v75c0 15 10 25 25 25h85c15 0 25 -10 25 -25zM190 100v-75c0 -15 -10 -30 -10 -30l-40 -70c-5 -9 -15 -20 -30 -20h-25c-10 0 -14 10 -10 20l30 70v5h-25c-15 0 -25 10 -25 25v75c0 15 10 25 25 25h85
c15 0 25 -10 25 -25z" />
    <glyph glyph-name="asterisk" unicode="*" horiz-adv-x="455" 
d="M225 435l-75 -100c-4 -5 -20 -5 -25 0l-40 35c-5 4 -5 19 0 25l65 85v5h-90c-10 0 -20 10 -20 20v50c0 10 10 20 20 20h120v105c0 10 10 20 20 20h55c10 0 20 -10 20 -20v-105h120c10 0 20 -10 20 -20v-50c0 -10 -10 -20 -20 -20h-90v-5l65 -85c5 -6 5 -21 0 -25l-40 -35
c-5 -5 -21 -5 -25 0l-75 100h-5z" />
    <glyph glyph-name="less" unicode="&#x3c;" horiz-adv-x="565" 
d="M50 210v90c0 14 7 20 20 25l420 180c18 8 25 0 25 -10v-80c0 -15 -5 -21 -15 -25l-305 -132v-6l305 -132c10 -4 15 -10 15 -25v-80c0 -10 -7 -18 -25 -10l-420 180c-13 5 -20 11 -20 25z" />
    <glyph glyph-name="greater" unicode="&#x3e;" horiz-adv-x="565" 
d="M495 300v-90c0 -14 -7 -20 -20 -25l-420 -180c-18 -8 -25 0 -25 10v80c0 15 5 21 15 25l305 132v6l-305 132c-10 4 -15 10 -15 25v80c0 10 7 18 25 10l420 -180c13 -5 20 -11 20 -25z" />
    <glyph glyph-name="equal" unicode="=" horiz-adv-x="565" 
d="M490 395h-415c-10 0 -20 10 -20 20v60c0 10 10 20 20 20h415c10 0 20 -10 20 -20v-60c0 -10 -10 -20 -20 -20zM490 175h-415c-10 0 -20 10 -20 20v60c0 10 10 20 20 20h415c10 0 20 -10 20 -20v-60c0 -10 -10 -20 -20 -20z" />
    <glyph glyph-name="bracketright" unicode="]" horiz-adv-x="400" 
d="M310 760v-960c0 -10 -10 -20 -20 -20h-250c-10 0 -20 10 -20 20v70c0 10 10 20 20 20h135v780h-135c-10 0 -20 10 -20 20v70c0 10 10 20 20 20h250c10 0 20 -10 20 -20z" />
    <glyph glyph-name="underscore" unicode="_" horiz-adv-x="455" 
d="M425 -190h-395c-10 0 -20 10 -20 20v60c0 10 10 20 20 20h395c10 0 20 -10 20 -20v-60c0 -10 -10 -20 -20 -20z" />
    <glyph glyph-name="bracketleft" unicode="[" horiz-adv-x="400" 
d="M90 -200v960c0 10 10 20 20 20h250c10 0 20 -10 20 -20v-70c0 -10 -10 -20 -20 -20h-135v-780h135c10 0 20 -10 20 -20v-70c0 -10 -10 -20 -20 -20h-250c-10 0 -20 10 -20 20z" />
    <glyph glyph-name="backslash" unicode="\" horiz-adv-x="489" 
d="M307 20l-295 660c-5 10 0 20 15 20h84c16 0 26 -10 31 -20l295 -660c5 -10 0 -20 -15 -20h-85c-15 0 -25 10 -30 20z" />
    <glyph glyph-name="parenright" unicode=")" horiz-adv-x="401" 
d="M191 280c0 260 -175 460 -175 460c-6 8 -8 19 0 25l55 45c6 5 20 5 25 0c0 0 235 -200 235 -530s-235 -530 -235 -530c-5 -5 -19 -5 -25 0l-55 45c-8 6 -6 17 0 25c0 0 175 200 175 460z" />
    <glyph glyph-name="asciicircum" unicode="^" horiz-adv-x="496" 
d="M251 585h-6l-102 -175c-9 -15 -15 -20 -30 -20h-80c-10 0 -16 10 -10 20l160 275c6 10 10 15 25 15h80c15 0 19 -5 25 -15l160 -275c6 -10 0 -20 -10 -20h-80c-15 0 -21 5 -30 20z" />
    <glyph glyph-name="parenleft" unicode="(" horiz-adv-x="401" 
d="M210 280c0 -260 175 -460 175 -460c6 -8 8 -19 0 -25l-55 -45c-6 -5 -20 -5 -25 0c0 0 -235 200 -235 530s235 530 235 530c5 5 19 5 25 0l55 -45c8 -6 6 -17 0 -25c0 0 -175 -200 -175 -460z" />
    <glyph glyph-name="braceright" unicode="}" horiz-adv-x="425" 
d="M395 315v-70c0 -10 -10 -20 -20 -20h-20c-35 0 -65 -30 -65 -65v-220c0 -85 -75 -160 -185 -160h-75c-10 0 -20 10 -20 20v70c0 10 10 20 20 20h55c40 0 70 30 70 70v180c0 110 90 135 90 135v10s-90 25 -90 135v180c0 40 -30 70 -70 70h-55c-10 0 -20 10 -20 20v70
c0 10 10 20 20 20h75c110 0 185 -75 185 -160v-220c0 -35 30 -65 65 -65h20c10 0 20 -10 20 -20z" />
    <glyph glyph-name="braceleft" unicode="{" horiz-adv-x="425" 
d="M30 245v70c0 10 10 20 20 20h20c35 0 65 30 65 65v220c0 85 75 160 185 160h75c10 0 20 -10 20 -20v-70c0 -10 -10 -20 -20 -20h-55c-40 0 -70 -30 -70 -70v-180c0 -110 -90 -135 -90 -135v-10s90 -25 90 -135v-180c0 -40 30 -70 70 -70h55c10 0 20 -10 20 -20v-70
c0 -10 -10 -20 -20 -20h-75c-110 0 -185 75 -185 160v220c0 35 -30 65 -65 65h-20c-10 0 -20 10 -20 20z" />
    <glyph glyph-name="bar" unicode="|" horiz-adv-x="305" 
d="M90 -150v830c0 10 10 20 20 20h85c10 0 20 -10 20 -20v-830c0 -10 -10 -20 -20 -20h-85c-10 0 -20 10 -20 20z" />
    <glyph glyph-name="at" unicode="@" horiz-adv-x="985" 
d="M750 150c-95 0 -165 35 -165 35h-10s-60 -35 -130 -35c-85 0 -135 50 -135 120s50 120 125 120h140v15c0 30 -25 55 -60 55h-130c-10 0 -20 10 -20 20v40c0 10 10 20 20 20h150c90 0 140 -50 140 -124v-171s25 -15 60 -15c40 0 65 35 65 60v240c0 85 -55 140 -140 140
h-325c-85 0 -140 -55 -140 -140v-360c0 -85 55 -140 140 -140h420c10 0 20 -10 20 -20v-60c0 -10 -10 -20 -20 -20h-440c-140 0 -245 105 -245 225v390c0 120 105 225 245 225h365c140 0 245 -105 245 -225v-240c0 -95 -60 -155 -175 -155zM575 245v65h-125
c-25 0 -40 -15 -40 -40s15 -40 50 -40c50 0 115 15 115 15z" />
    <glyph glyph-name="afii61352" unicode="&#x2116;" horiz-adv-x="1168" 
d="M230 480h-5v-460c0 -10 -10 -20 -20 -20h-95c-10 0 -20 10 -20 20v660c0 10 10 20 20 20h100c15 0 23 -10 30 -20l310 -460h5v460c0 10 10 20 20 20h95c10 0 20 -10 20 -20v-660c0 -10 -10 -20 -20 -20h-100c-15 0 -23 10 -30 20zM1095 160h-295c-10 0 -15 5 -15 15v80
c0 10 5 15 15 15h295c10 0 15 -5 15 -15v-80c0 -10 -5 -15 -15 -15zM1118 500c0 -75 -65 -140 -150 -140h-40c-85 0 -150 65 -150 140v70c0 75 65 140 150 140h40c85 0 150 -65 150 -140v-70zM1018 550c0 40 -30 70 -65 70h-10c-35 0 -65 -30 -65 -70v-30
c0 -40 30 -70 65 -70h10c35 0 65 30 65 70v30z" />
    <glyph glyph-name="guillemotright" unicode="&#xbb;" horiz-adv-x="584" 
d="M554 255c0 -15 -5 -20 -10 -25l-190 -210c-5 -5 -20 -5 -25 0l-55 50c-5 5 -5 15 0 20l150 162v6l-150 162c-5 5 -5 15 0 20l55 50c5 5 20 5 25 0l190 -210c5 -5 10 -10 10 -25zM314 255c0 -15 -5 -20 -10 -25l-190 -210c-5 -5 -20 -5 -25 0l-55 50c-5 5 -5 15 0 20
l150 162v6l-150 162c-5 5 -5 15 0 20l55 50c5 5 20 5 25 0l190 -210c5 -5 10 -10 10 -25z" />
    <glyph glyph-name="ampersand" unicode="&#x26;" horiz-adv-x="675" 
d="M635 300h-40v-255c0 -10 -5 -15 -20 -20c0 0 -185 -45 -315 -45s-220 85 -220 205c0 140 125 170 125 170v5s-105 30 -105 150c0 110 80 190 220 190h210c10 0 20 -10 20 -20v-70c0 -10 -10 -20 -20 -20h-190c-65 0 -100 -35 -100 -95c0 -50 35 -85 100 -85h335
c10 0 20 -10 20 -20v-70c0 -10 -10 -20 -20 -20zM280 90c54 0 123 13 180 27v183h-180c-55 0 -100 -50 -100 -100c0 -64 40 -110 100 -110z" />
    <glyph glyph-name="afii10017" unicode="&#x410;" horiz-adv-x="702" 
d="M261 680c4 10 15 20 25 20h130c10 0 21 -10 25 -20l255 -660c4 -10 -5 -20 -15 -20h-100c-15 0 -27 10 -30 20l-45 130h-310l-45 -130c-4 -10 -15 -20 -30 -20h-100c-10 0 -19 10 -15 20zM348 550l-107 -290h220l-107 290h-6z" />
    <glyph glyph-name="afii10019" unicode="&#x412;" horiz-adv-x="715" 
d="M110 700h310c140 0 220 -80 220 -190s-95 -140 -95 -140v-5s140 -25 140 -165c0 -120 -80 -200 -245 -200h-330c-10 0 -20 10 -20 20v660c0 10 10 20 20 20zM540 205v10c0 55 -40 95 -120 95h-195v-200h195c80 0 120 40 120 95zM500 495v10c0 45 -42 85 -100 85h-175
v-180h175c58 0 100 40 100 85z" />
    <glyph glyph-name="afii10022" unicode="&#x415;" horiz-adv-x="675" 
d="M225 110h410c10 0 20 -10 20 -20v-70c0 -10 -10 -20 -20 -20h-528c-10 0 -17 7 -17 17v663c0 10 10 20 20 20h515c10 0 20 -10 20 -20v-70c0 -10 -10 -20 -20 -20h-400v-180h280c10 0 20 -10 20 -20v-70c0 -10 -10 -20 -20 -20h-280v-190z" />
    <glyph glyph-name="afii10028" unicode="&#x41a;" horiz-adv-x="703" 
d="M90 20v660c0 10 10 20 20 20h95c10 0 20 -10 20 -20v-265h140l165 265c6 10 20 20 30 20h110c10 0 16 -10 10 -20l-200 -320l220 -340c6 -10 0 -20 -10 -20h-110c-10 0 -23 10 -30 20l-185 285h-140v-285c0 -10 -10 -20 -20 -20h-95c-10 0 -20 10 -20 20z" />
    <glyph glyph-name="afii10030" unicode="&#x41c;" horiz-adv-x="985" 
d="M240 680l250 -380h5l250 380c7 10 15 20 30 20h100c10 0 20 -10 20 -20v-660c0 -10 -10 -20 -20 -20h-95c-10 0 -20 10 -20 20v450h-5l-205 -300c-7 -10 -15 -15 -25 -15h-65c-10 0 -18 5 -25 15l-205 300h-5v-450c0 -10 -10 -20 -20 -20h-95c-10 0 -20 10 -20 20v660
c0 10 10 20 20 20h100c15 0 23 -10 30 -20z" />
    <glyph glyph-name="afii10031" unicode="&#x41d;" horiz-adv-x="785" 
d="M560 300h-335v-280c0 -10 -10 -20 -20 -20h-95c-10 0 -20 10 -20 20v660c0 10 10 20 20 20h95c10 0 20 -10 20 -20v-270h335v270c0 10 10 20 20 20h95c10 0 20 -10 20 -20v-660c0 -10 -10 -20 -20 -20h-95c-10 0 -20 10 -20 20v280z" />
    <glyph glyph-name="afii10032" unicode="&#x41e;" horiz-adv-x="735" 
d="M675 515v-330c0 -120 -80 -200 -220 -200h-175c-140 0 -220 80 -220 200v330c0 120 80 200 220 200h175c140 0 220 -80 220 -200zM540 500c0 70 -35 105 -105 105h-135c-70 0 -105 -35 -105 -105v-300c0 -70 35 -105 105 -105h135c70 0 105 35 105 105v300z" />
    <glyph glyph-name="afii10034" unicode="&#x420;" horiz-adv-x="720" 
d="M680 505v-80c0 -105 -90 -195 -230 -195h-225v-210c0 -10 -10 -20 -20 -20h-95c-10 0 -20 10 -20 20v660c0 10 10 20 20 20h340c140 0 230 -90 230 -195zM225 340h205c70 0 115 45 115 100v50c0 55 -45 100 -115 100h-205v-250z" />
    <glyph glyph-name="afii10035" unicode="&#x421;" horiz-adv-x="640" 
d="M280 700h295c10 0 20 -10 20 -20v-70c0 -10 -10 -20 -20 -20h-275c-55 0 -105 -50 -105 -110v-280c0 -60 45 -105 105 -105c110 0 305 50 305 50c10 0 20 -10 20 -20v-75c0 -10 -5 -16 -20 -20c0 0 -195 -50 -325 -50c-140 0 -220 80 -220 205v310c0 125 80 205 220 205z
" />
    <glyph glyph-name="afii10036" unicode="&#x422;" 
d="M375 590v-570c0 -10 -10 -20 -20 -20h-95c-10 0 -20 10 -20 20v570h-215c-10 0 -20 10 -20 20v70c0 10 10 20 20 20h565c10 0 20 -10 20 -20v-70c0 -10 -10 -20 -20 -20h-215z" />
    <glyph glyph-name="afii10039" unicode="&#x425;" horiz-adv-x="681" 
d="M338 270l-175 -250c-7 -10 -15 -20 -30 -20h-115c-10 0 -17 10 -10 20l240 340l-220 320c-6 10 0 20 10 20h115c15 0 23 -10 30 -20l155 -225h5l155 225c7 10 15 20 30 20h115c10 0 16 -10 10 -20l-220 -320l240 -340c7 -10 0 -20 -10 -20h-115c-15 0 -23 10 -30 20
l-175 250h-5z" />
    <glyph glyph-name="quotesingle" unicode="'" horiz-adv-x="235" 
d="M140 435h-45c-10 0 -19 10 -20 20l-15 100v125c0 10 10 20 20 20h75c10 0 20 -10 20 -20v-125l-15 -100c-1 -10 -10 -20 -20 -20z" />
    <glyph glyph-name="asciitilde" unicode="~" horiz-adv-x="517" 
d="M181 310c-46 0 -80 -55 -80 -55c-4 -5 -15 -5 -20 0l-45 45c-10 10 -5 20 0 30c0 0 45 95 130 95s105 -60 170 -60c46 0 80 55 80 55c4 5 15 5 20 0l45 -45c10 -10 5 -20 0 -30c0 0 -45 -95 -130 -95s-105 60 -170 60z" />
    <glyph glyph-name="grave" unicode="`" horiz-adv-x="270" 
d="M53 700h85c15 0 26 -10 30 -20l60 -140c4 -10 0 -20 -10 -20h-55c-15 0 -24 10 -30 20l-90 140c-7 10 0 20 10 20z" />
    <glyph glyph-name="afii10051" unicode="&#x402;" horiz-adv-x="780" 
d="M305 590v-160h215c140 0 220 -80 220 -200v-85c0 -100 -60 -160 -170 -160c-50 0 -90 10 -90 10c-10 2 -20 10 -20 20v75c0 10 10 20 20 20c0 0 40 -10 70 -10c35 0 55 20 55 60v55c0 70 -35 105 -105 105h-195v-300c0 -10 -10 -20 -20 -20h-95c-10 0 -20 10 -20 20v570
h-150c-10 0 -20 10 -20 20v70c0 10 10 20 20 20h460c10 0 20 -10 20 -20v-70c0 -10 -10 -20 -20 -20h-175z" />
    <glyph glyph-name="quotesinglbase" unicode="&#x201a;" horiz-adv-x="225" 
d="M180 100v-75c0 -15 -10 -30 -10 -30l-40 -70c-5 -9 -15 -20 -30 -20h-25c-10 0 -14 10 -10 20l30 70v5h-25c-15 0 -25 10 -25 25v75c0 15 10 25 25 25h85c15 0 25 -10 25 -25z" />
    <glyph glyph-name="quotedblbase" unicode="&#x201e;" horiz-adv-x="420" 
d="M180 100v-75c0 -15 -10 -30 -10 -30l-40 -70c-5 -9 -15 -20 -30 -20h-25c-10 0 -14 10 -10 20l30 70v5h-25c-15 0 -25 10 -25 25v75c0 15 10 25 25 25h85c15 0 25 -10 25 -25zM375 100v-75c0 -15 -10 -30 -10 -30l-40 -70c-5 -9 -15 -20 -30 -20h-25c-10 0 -14 10 -10 20
l30 70v5h-25c-15 0 -25 10 -25 25v75c0 15 10 25 25 25h85c15 0 25 -10 25 -25z" />
    <glyph glyph-name="ellipsis" unicode="&#x2026;" horiz-adv-x="735" 
d="M180 100v-75c0 -15 -9 -25 -25 -25h-85c-15 0 -25 10 -25 25v75c0 15 10 25 25 25h85c15 0 25 -10 25 -25zM435 100v-75c0 -15 -9 -25 -25 -25h-85c-15 0 -25 10 -25 25v75c0 15 10 25 25 25h85c15 0 25 -10 25 -25zM690 100v-75c0 -15 -9 -25 -25 -25h-85
c-15 0 -25 10 -25 25v75c0 15 10 25 25 25h85c15 0 25 -10 25 -25z" />
    <glyph glyph-name="dagger" unicode="&#x2020;" horiz-adv-x="565" 
d="M50 500h170v180c0 10 10 20 20 20h85c10 0 20 -10 20 -20v-180h170c10 0 20 -10 20 -20v-70c0 -10 -10 -20 -20 -20h-170v-540c0 -10 -10 -20 -20 -20h-85c-10 0 -20 10 -20 20v540h-170c-10 0 -20 10 -20 20v70c0 10 10 20 20 20z" />
    <glyph glyph-name="daggerdbl" unicode="&#x2021;" horiz-adv-x="585" 
d="M525 40h-170v-190c0 -10 -10 -20 -20 -20h-85c-10 0 -20 10 -20 20v190h-170c-10 0 -20 10 -20 20v70c0 10 10 20 20 20h170v230h-170c-10 0 -20 10 -20 20v70c0 10 10 20 20 20h170v190c0 10 10 20 20 20h85c10 0 20 -10 20 -20v-190h170c10 0 20 -10 20 -20v-70
c0 -10 -10 -20 -20 -20h-170v-230h170c10 0 20 -10 20 -20v-70c0 -10 -10 -20 -20 -20z" />
    <glyph glyph-name="Euro" unicode="&#x20ac;" horiz-adv-x="700" 
d="M530 375h-275v-60h275c10 0 20 -10 20 -20v-60c0 -10 -10 -20 -20 -20h-275v-15c0 -60 45 -105 105 -105c110 0 290 50 305 50c10 0 20 -10 20 -20v-75c0 -10 -5 -16 -20 -20c0 0 -195 -50 -325 -50c-140 0 -220 80 -220 205v30h-70c-10 0 -20 10 -20 20v60
c0 10 10 20 20 20h70v60h-70c-10 0 -20 10 -20 20v60c0 10 10 20 20 20h70v20c0 125 80 205 220 205h295c10 0 20 -10 20 -20v-70c0 -10 -10 -20 -20 -20h-275c-55 0 -105 -50 -105 -110v-5h275c10 0 20 -10 20 -20v-60c0 -10 -10 -20 -20 -20z" />
    <glyph glyph-name="perthousand" unicode="&#x2030;" horiz-adv-x="1250" 
d="M240 20l280 660c4 10 15 20 30 20h90c10 0 14 -10 10 -20l-280 -660c-4 -10 -15 -20 -30 -20h-90c-10 0 -14 10 -10 20zM370 500c0 -75 -65 -140 -150 -140h-40c-85 0 -150 65 -150 140v70c0 75 65 140 150 140h40c85 0 150 -65 150 -140v-70zM270 550
c0 40 -30 70 -65 70h-10c-35 0 -65 -30 -65 -70v-30c0 -40 30 -70 65 -70h10c35 0 65 30 65 70v30zM845 130c0 -75 -65 -140 -150 -140h-40c-85 0 -150 65 -150 140v70c0 75 65 140 150 140h40c85 0 150 -65 150 -140v-70zM745 180c0 40 -30 70 -65 70h-10
c-35 0 -65 -30 -65 -70v-30c0 -40 30 -70 65 -70h10c35 0 65 30 65 70v30zM1220 130c0 -75 -65 -140 -150 -140h-40c-85 0 -150 65 -150 140v70c0 75 65 140 150 140h40c85 0 150 -65 150 -140v-70zM1120 180c0 40 -30 70 -65 70h-10c-35 0 -65 -30 -65 -70v-30
c0 -40 30 -70 65 -70h10c35 0 65 30 65 70v30z" />
    <glyph glyph-name="afii10058" unicode="&#x409;" horiz-adv-x="1115" 
d="M1075 255v-60c0 -105 -90 -195 -230 -195h-290c-10 0 -20 10 -20 20v570h-200l-45 -360c-20 -160 -105 -245 -230 -245c-30 0 -50 5 -50 5c-15 3 -20 13 -20 20v65c0 10 10 20 20 20c0 0 20 -5 40 -5c40 0 93 50 105 140l60 450c1 10 10 20 20 20h415c10 0 20 -10 20 -20
v-230h175c140 0 230 -90 230 -195zM825 340h-155v-230h155c70 0 115 45 115 100v30c0 55 -45 100 -115 100z" />
    <glyph glyph-name="guilsinglleft" unicode="&#x2039;" horiz-adv-x="384" 
d="M30 260c0 10 10 20 15 25l225 230c5 5 20 5 25 0l55 -55c5 -5 5 -15 0 -20l-170 -177v-6l170 -177c5 -5 5 -15 0 -20l-55 -55c-5 -5 -20 -5 -25 0l-225 230c-5 5 -15 15 -15 25z" />
    <glyph glyph-name="afii10059" unicode="&#x40a;" horiz-adv-x="1095" 
d="M505 320h-280v-300c0 -10 -10 -20 -20 -20h-95c-10 0 -20 10 -20 20v660c0 10 10 20 20 20h95c10 0 20 -10 20 -20v-250h280v250c0 10 10 20 20 20h95c10 0 20 -10 20 -20v-250h185c140 0 230 -90 230 -195v-40c0 -105 -90 -195 -230 -195h-300c-10 0 -20 10 -20 20v300z
M805 320h-165v-210h165c70 0 115 45 115 100v10c0 55 -45 100 -115 100z" />
    <glyph glyph-name="afii10060" unicode="&#x40b;" horiz-adv-x="800" 
d="M305 590v-160h215c140 0 220 -80 220 -200v-210c0 -10 -10 -20 -20 -20h-95c-10 0 -20 10 -20 20v195c0 70 -35 105 -105 105h-195v-300c0 -10 -10 -20 -20 -20h-95c-10 0 -20 10 -20 20v570h-150c-10 0 -20 10 -20 20v70c0 10 10 20 20 20h460c10 0 20 -10 20 -20v-70
c0 -10 -10 -20 -20 -20h-175z" />
    <glyph glyph-name="afii10145" unicode="&#x40f;" horiz-adv-x="785" 
d="M225 110h335v570c0 10 10 20 20 20h95c10 0 20 -10 20 -20v-660c0 -10 -10 -20 -20 -20h-215v-120c0 -10 -10 -20 -20 -20h-95c-10 0 -20 10 -20 20v120h-215c-10 0 -20 10 -20 20v660c0 10 10 20 20 20h95c10 0 20 -10 20 -20v-570z" />
    <glyph glyph-name="quotedblleft" unicode="&#x201c;" horiz-adv-x="415" 
d="M45 505v75c0 15 10 30 10 30l40 70c5 9 15 20 30 20h25c10 0 14 -10 10 -20l-30 -70v-5h25c15 0 25 -10 25 -25v-75c0 -15 -10 -25 -25 -25h-85c-15 0 -25 10 -25 25zM235 505v75c0 15 10 30 10 30l40 70c5 9 15 20 30 20h25c10 0 14 -10 10 -20l-30 -70v-5h25
c15 0 25 -10 25 -25v-75c0 -15 -10 -25 -25 -25h-85c-15 0 -25 10 -25 25z" />
    <glyph glyph-name="quotedblright" unicode="&#x201d;" horiz-adv-x="415" 
d="M180 675v-75c0 -15 -10 -30 -10 -30l-40 -70c-5 -9 -15 -20 -30 -20h-25c-10 0 -14 10 -10 20l30 70v5h-25c-15 0 -25 10 -25 25v75c0 15 10 25 25 25h85c15 0 25 -10 25 -25zM370 675v-75c0 -15 -10 -30 -10 -30l-40 -70c-5 -9 -15 -20 -30 -20h-25c-10 0 -14 10 -10 20
l30 70v5h-25c-15 0 -25 10 -25 25v75c0 15 10 25 25 25h85c15 0 25 -10 25 -25z" />
    <glyph glyph-name="bullet" unicode="&#x2022;" horiz-adv-x="400" 
d="M110 340v20c0 45 30 75 80 75h20c50 0 80 -30 80 -75v-20c0 -45 -30 -75 -80 -75h-20c-50 0 -80 30 -80 75z" />
    <glyph glyph-name="endash" unicode="&#x2013;" horiz-adv-x="605" 
d="M550 285h-495c-10 0 -20 10 -20 20v60c0 10 10 20 20 20h495c10 0 20 -10 20 -20v-60c0 -10 -10 -20 -20 -20z" />
    <glyph glyph-name="emdash" unicode="&#x2014;" horiz-adv-x="825" 
d="M770 285h-715c-10 0 -20 10 -20 20v60c0 10 10 20 20 20h715c10 0 20 -10 20 -20v-60c0 -10 -10 -20 -20 -20z" />
    <glyph glyph-name="trademark" unicode="&#x2122;" horiz-adv-x="880" 
d="M510 685l98 -150h4l98 150c5 7 15 15 25 15h80c10 0 15 -5 15 -15v-310c0 -10 -5 -15 -15 -15h-80c-10 0 -15 5 -15 15v155h-5l-60 -90c-6 -10 -15 -15 -25 -15h-40c-10 0 -19 5 -25 15l-60 90h-5v-155c0 -10 -5 -15 -15 -15h-80c-10 0 -15 5 -15 15v310c0 10 5 15 15 15
h80c10 0 20 -8 25 -15zM120 375v245h-95c-10 0 -15 5 -15 15v50c0 10 5 15 15 15h300c10 0 15 -5 15 -15v-50c0 -10 -5 -15 -15 -15h-95v-245c0 -10 -5 -15 -15 -15h-80c-10 0 -15 5 -15 15z" />
    <glyph glyph-name="guilsinglright" unicode="&#x203a;" horiz-adv-x="384" 
d="M354 260c0 -10 -10 -20 -15 -25l-225 -230c-5 -5 -20 -5 -25 0l-55 55c-5 5 -5 15 0 20l170 177v6l-170 177c-5 5 -5 15 0 20l55 55c5 5 20 5 25 0l225 -230c5 -5 15 -15 15 -25z" />
    <glyph glyph-name="afii10062" unicode="&#x40e;" horiz-adv-x="684" 
d="M282 920c0 -30 20 -50 50 -50h40c30 0 50 20 50 50v25c0 10 10 20 20 20h80c10 0 20 -10 20 -20v-25c0 -90 -60 -150 -155 -150h-70c-95 0 -155 60 -155 150v25c0 10 10 20 20 20h80c10 0 20 -10 20 -20v-25zM272 175l-260 505c-5 10 0 20 14 20h106c15 0 25 -10 30 -20
l190 -385h5l175 385c5 10 15 20 30 20h100c15 0 20 -10 15 -20l-235 -505c-58 -125 -125 -190 -240 -190c-40 0 -80 5 -80 5c-10 2 -20 10 -20 20v71c0 10 10 19 20 19c0 0 40 -5 65 -5c40 0 75 35 85 80z" />
    <glyph glyph-name="afii10057" unicode="&#x408;" horiz-adv-x="515" 
d="M295 200v390h-175c-10 0 -20 10 -20 20v70c0 10 10 20 20 20h290c10 0 20 -10 20 -20v-495c0 -125 -80 -205 -220 -205c-75 0 -180 20 -180 20c-10 2 -20 10 -20 20v75c0 10 10 20 20 20c0 0 94 -20 160 -20c60 0 105 45 105 105z" />
    <glyph glyph-name="currency" unicode="&#xa4;" horiz-adv-x="735" 
d="M575 120h-320v-100c0 -10 -10 -20 -20 -20h-95c-10 0 -20 10 -20 20v100h-70c-10 0 -20 10 -20 20v60c0 10 10 20 20 20h70v60h-70c-10 0 -20 10 -20 20v60c0 10 10 20 20 20h70v300c0 10 10 20 20 20h325c140 0 230 -90 230 -195v-30c0 -105 -90 -195 -230 -195h-210
v-60h320c10 0 20 -10 20 -20v-60c0 -10 -10 -20 -20 -20zM255 380h190c70 0 115 45 115 100v10c0 55 -45 100 -115 100h-190v-210z" />
    <glyph glyph-name="afii10050" unicode="&#x490;" horiz-adv-x="610" 
d="M225 590v-570c0 -10 -10 -20 -20 -20h-95c-10 0 -20 10 -20 20v660c0 10 10 20 20 20h365v70c0 10 10 20 20 20h95c10 0 20 -10 20 -20v-160c0 -10 -10 -20 -20 -20h-365z" />
    <glyph glyph-name="brokenbar" unicode="&#xa6;" horiz-adv-x="305" 
d="M90 350v330c0 10 10 20 20 20h85c10 0 20 -10 20 -20v-330c0 -10 -10 -20 -20 -20h-85c-10 0 -20 10 -20 20zM90 -150v330c0 10 10 20 20 20h85c10 0 20 -10 20 -20v-330c0 -10 -10 -20 -20 -20h-85c-10 0 -20 10 -20 20z" />
    <glyph glyph-name="section" unicode="&#xa7;" horiz-adv-x="565" 
d="M335 -170c-100 0 -260 40 -260 40c-10 3 -20 10 -20 20v60c0 10 10 20 20 20c0 0 160 -36 245 -36c40 0 70 31 70 66v10c0 105 -340 70 -340 256v20c0 80 90 124 90 124v5s-75 35 -75 105v40c0 75 65 140 175 140h229c10 0 17 -7 17 -17v-66c0 -10 -7 -17 -17 -17h-209
c-40 0 -70 -30 -70 -55v-10c0 -105 325 -64 325 -250v-20c0 -80 -90 -125 -90 -125v-5s90 -40 90 -110v-40c0 -75 -70 -155 -180 -155zM335 175c0 0 55 40 55 85v10c0 77 -160 105 -160 105s-55 -39 -55 -84v-10c0 -77 160 -106 160 -106z" />
    <glyph glyph-name="copyright" unicode="&#xa9;" horiz-adv-x="1005" 
d="M660 260c10 0 20 -10 20 -20v-45c0 -10 -10 -18 -20 -20c0 0 -100 -25 -171 -25c-94 0 -149 55 -149 130v130c0 75 55 130 150 130h155c10 0 15 -5 15 -15v-55c0 -10 -5 -15 -15 -15h-135c-35 0 -60 -25 -60 -60v-100c0 -35 25 -60 60 -60c50 0 150 25 150 25zM935 156
c0 -126 -100 -226 -240 -226h-385c-140 0 -240 100 -240 226v388c0 126 100 226 240 226h385c140 0 240 -100 240 -226v-388zM195 530v-360c0 -80 60 -140 135 -140h345c75 0 135 60 135 140v360c0 80 -60 140 -135 140h-345c-75 0 -135 -60 -135 -140z" />
    <glyph glyph-name="afii10053" unicode="&#x404;" horiz-adv-x="640" 
d="M280 700h295c10 0 20 -10 20 -20v-70c0 -10 -10 -20 -20 -20h-275c-55 0 -105 -50 -105 -110v-70h230c10 0 20 -10 20 -20v-70c0 -10 -10 -20 -20 -20h-230v-100c0 -60 45 -105 105 -105c110 0 305 50 305 50c10 0 20 -10 20 -20v-75c0 -10 -5 -16 -20 -20
c0 0 -195 -50 -325 -50c-140 0 -220 80 -220 205v310c0 125 80 205 220 205z" />
    <glyph glyph-name="guillemotleft" unicode="&#xab;" horiz-adv-x="584" 
d="M30 255c0 15 5 20 10 25l190 210c5 5 20 5 25 0l55 -50c5 -5 5 -15 0 -20l-150 -162v-6l150 -162c5 -5 5 -15 0 -20l-55 -50c-5 -5 -20 -5 -25 0l-190 210c-5 5 -10 10 -10 25zM270 255c0 15 5 20 10 25l190 210c5 5 20 5 25 0l55 -50c5 -5 5 -15 0 -20l-150 -162v-6
l150 -162c5 -5 5 -15 0 -20l-55 -50c-5 -5 -20 -5 -25 0l-190 210c-5 5 -10 10 -10 25z" />
    <glyph glyph-name="logicalnot" unicode="&#xac;" horiz-adv-x="535" 
d="M490 425v-190c0 -10 -10 -20 -20 -20h-85c-10 0 -20 10 -20 20v110h-310c-10 0 -20 10 -20 20v60c0 10 10 20 20 20h415c10 0 20 -10 20 -20z" />
    <glyph glyph-name="uni00AD" unicode="&#xad;" horiz-adv-x="515" 
d="M460 280h-405c-10 0 -20 10 -20 20v60c0 10 10 20 20 20h405c10 0 20 -10 20 -20v-60c0 -10 -10 -20 -20 -20z" />
    <glyph glyph-name="registered" unicode="&#xae;" horiz-adv-x="1005" 
d="M935 156c0 -126 -100 -226 -240 -226h-385c-140 0 -240 100 -240 226v388c0 126 100 226 240 226h385c140 0 240 -100 240 -226v-388zM195 530v-360c0 -80 60 -140 135 -140h345c75 0 135 60 135 140v360c0 80 -60 140 -135 140h-345c-75 0 -135 -60 -135 -140zM695 435
v-40c0 -55 -65 -85 -65 -85v-5l80 -130c5 -7 0 -15 -10 -15h-80c-10 0 -14 5 -20 15l-70 115h-80v-119c0 -6 -5 -11 -12 -11h-83c-10 0 -15 5 -15 15v350c0 10 5 15 15 15h210c75 0 130 -50 130 -105zM545 455h-95v-80h95c25 0 40 15 40 35v10c0 20 -15 35 -40 35z" />
    <glyph glyph-name="degree" unicode="&#xb0;" horiz-adv-x="420" 
d="M380 490c0 -65 -55 -120 -135 -120h-70c-80 0 -135 55 -135 120v90c0 65 55 120 135 120h70c80 0 135 -55 135 -120v-90zM280 565c0 30 -25 55 -55 55h-30c-30 0 -55 -25 -55 -55v-60c0 -30 25 -55 55 -55h30c30 0 55 25 55 55v60z" />
    <glyph glyph-name="plusminus" unicode="&#xb1;" horiz-adv-x="570" 
d="M65 135h170v175h-170c-10 0 -20 10 -20 20v60c0 10 10 20 20 20h170v170c0 10 10 20 20 20h60c10 0 20 -10 20 -20v-170h170c10 0 20 -10 20 -20v-60c0 -10 -10 -20 -20 -20h-170v-175h170c10 0 20 -10 20 -20v-60c0 -10 -10 -20 -20 -20h-440c-10 0 -20 10 -20 20v60
c0 10 10 20 20 20z" />
    <glyph glyph-name="afii10055" unicode="&#x406;" horiz-adv-x="435" 
d="M285 110h100c10 0 20 -10 20 -20v-70c0 -10 -10 -20 -20 -20h-335c-10 0 -20 10 -20 20v70c0 10 10 20 20 20h100v480h-100c-10 0 -20 10 -20 20v70c0 10 10 20 20 20h335c10 0 20 -10 20 -20v-70c0 -10 -10 -20 -20 -20h-100v-480z" />
    <glyph glyph-name="mu" unicode="&#xb5;" horiz-adv-x="635" 
d="M200 0h-5v-150c0 -10 -10 -20 -20 -20h-85c-10 0 -20 10 -20 20v640c0 10 10 20 20 20h85c10 0 20 -10 20 -20v-320c0 -50 30 -80 75 -80c65 0 170 30 170 30v370c0 10 10 20 20 20h85c10 0 20 -10 20 -20v-470c0 -10 -10 -20 -20 -20h-70c-15 0 -23 10 -25 20l-5 20h-5
s-95 -55 -180 -55c-30 0 -60 15 -60 15z" />
    <glyph glyph-name="paragraph" unicode="&#xb6;" horiz-adv-x="610" 
d="M195 -155v485c-95 0 -155 60 -155 150v70c0 90 60 150 170 150h360c10 0 20 -10 20 -20v-60c0 -10 -10 -20 -20 -20h-65v-755c0 -10 -5 -15 -15 -15h-95c-10 0 -15 5 -15 15v755h-60v-755c0 -10 -5 -15 -15 -15h-95c-10 0 -15 5 -15 15z" />
    <glyph glyph-name="periodcentered" unicode="&#xb7;" horiz-adv-x="280" 
d="M205 385v-70c0 -20 -10 -30 -30 -30h-70c-20 0 -30 10 -30 30v70c0 20 10 30 30 30h70c20 0 30 -10 30 -30z" />
    <glyph glyph-name="afii10054" unicode="&#x405;" horiz-adv-x="620" 
d="M449 180c0 155 -394 60 -394 331c0 109 80 189 210 189h280c10 0 20 -10 20 -20v-70c0 -10 -10 -20 -20 -20h-260c-56 0 -95 -40 -95 -80c0 -155 395 -60 395 -330c0 -120 -81 -200 -220 -200c-130 0 -325 50 -325 50c-15 4 -20 10 -20 20v75c0 10 10 20 20 20
c0 0 195 -50 305 -50c60 0 104 40 104 85z" />
    <glyph glyph-name="E" unicode="E" horiz-adv-x="675" 
d="M225 110h410c10 0 20 -10 20 -20v-70c0 -10 -10 -20 -20 -20h-528c-10 0 -17 7 -17 17v663c0 10 10 20 20 20h515c10 0 20 -10 20 -20v-70c0 -10 -10 -20 -20 -20h-400v-180h280c10 0 20 -10 20 -20v-70c0 -10 -10 -20 -20 -20h-280v-190z" />
    <glyph glyph-name="F" unicode="F" horiz-adv-x="645" 
d="M225 265v-245c0 -10 -10 -20 -20 -20h-95c-10 0 -20 10 -20 20v660c0 10 10 20 20 20h505c10 0 20 -10 20 -20v-70c0 -10 -10 -20 -20 -20h-390v-215h270c10 0 20 -10 20 -20v-70c0 -10 -10 -20 -20 -20h-270z" />
    <glyph glyph-name="H" unicode="H" horiz-adv-x="785" 
d="M560 300h-335v-280c0 -10 -10 -20 -20 -20h-95c-10 0 -20 10 -20 20v660c0 10 10 20 20 20h95c10 0 20 -10 20 -20v-270h335v270c0 10 10 20 20 20h95c10 0 20 -10 20 -20v-660c0 -10 -10 -20 -20 -20h-95c-10 0 -20 10 -20 20v280z" />
    <glyph glyph-name="I" unicode="I" horiz-adv-x="435" 
d="M285 110h100c10 0 20 -10 20 -20v-70c0 -10 -10 -20 -20 -20h-335c-10 0 -20 10 -20 20v70c0 10 10 20 20 20h100v480h-100c-10 0 -20 10 -20 20v70c0 10 10 20 20 20h335c10 0 20 -10 20 -20v-70c0 -10 -10 -20 -20 -20h-100v-480z" />
    <glyph glyph-name="O" unicode="O" horiz-adv-x="735" 
d="M675 515v-330c0 -120 -80 -200 -220 -200h-175c-140 0 -220 80 -220 200v330c0 120 80 200 220 200h175c140 0 220 -80 220 -200zM540 500c0 70 -35 105 -105 105h-135c-70 0 -105 -35 -105 -105v-300c0 -70 35 -105 105 -105h135c70 0 105 35 105 105v300z" />
    <glyph glyph-name="P" unicode="P" horiz-adv-x="720" 
d="M680 505v-80c0 -105 -90 -195 -230 -195h-225v-210c0 -10 -10 -20 -20 -20h-95c-10 0 -20 10 -20 20v660c0 10 10 20 20 20h340c140 0 230 -90 230 -195zM225 340h205c70 0 115 45 115 100v50c0 55 -45 100 -115 100h-205v-250z" />
    <glyph glyph-name="quoteleft" unicode="&#x2018;" horiz-adv-x="225" 
d="M45 505v75c0 15 10 30 10 30l40 70c5 9 15 20 30 20h25c10 0 14 -10 10 -20l-30 -70v-5h25c15 0 25 -10 25 -25v-75c0 -15 -10 -25 -25 -25h-85c-15 0 -25 10 -25 25z" />
    <glyph glyph-name="quoteright" unicode="&#x2019;" horiz-adv-x="225" 
d="M180 675v-75c0 -15 -10 -30 -10 -30l-40 -70c-5 -9 -15 -20 -30 -20h-25c-10 0 -14 10 -10 20l30 70v5h-25c-15 0 -25 10 -25 25v75c0 15 10 25 25 25h85c15 0 25 -10 25 -25z" />
    <glyph glyph-name="afii10052" unicode="&#x403;" 
d="M395 960h85c10 0 17 -10 10 -20l-90 -140c-6 -10 -15 -20 -30 -20h-55c-10 0 -15 10 -10 20l60 140c5 10 15 20 30 20zM225 590v-570c0 -10 -10 -20 -20 -20h-95c-10 0 -20 10 -20 20v660c0 10 10 20 20 20h485c10 0 20 -10 20 -20v-70c0 -10 -10 -20 -20 -20h-370z" />
    <glyph glyph-name="afii10061" unicode="&#x40c;" horiz-adv-x="703" 
d="M413 960h85c10 0 17 -10 10 -20l-90 -140c-6 -10 -15 -20 -30 -20h-55c-10 0 -15 10 -10 20l60 140c5 10 15 20 30 20zM90 20v660c0 10 10 20 20 20h95c10 0 20 -10 20 -20v-265h140l165 265c6 10 20 20 30 20h110c10 0 16 -10 10 -20l-200 -320l220 -340
c6 -10 0 -20 -10 -20h-110c-10 0 -23 10 -30 20l-185 285h-140v-285c0 -10 -10 -20 -20 -20h-95c-10 0 -20 10 -20 20z" />
    <glyph glyph-name="afii10023" unicode="&#x401;" horiz-adv-x="675" 
d="M330 900v-75c0 -15 -9 -25 -25 -25h-80c-15 0 -25 10 -25 25v75c0 15 10 25 25 25h80c15 0 25 -10 25 -25zM540 900v-75c0 -15 -9 -25 -25 -25h-80c-15 0 -25 10 -25 25v75c0 15 10 25 25 25h80c15 0 25 -10 25 -25zM225 110h410c10 0 20 -10 20 -20v-70
c0 -10 -10 -20 -20 -20h-528c-10 0 -17 7 -17 17v663c0 10 10 20 20 20h515c10 0 20 -10 20 -20v-70c0 -10 -10 -20 -20 -20h-400v-180h280c10 0 20 -10 20 -20v-70c0 -10 -10 -20 -20 -20h-280v-190z" />
    <glyph glyph-name="afii10056" unicode="&#x407;" horiz-adv-x="435" 
d="M177 900v-75c0 -15 -9 -25 -25 -25h-80c-15 0 -25 10 -25 25v75c0 15 10 25 25 25h80c15 0 25 -10 25 -25zM387 900v-75c0 -15 -9 -25 -25 -25h-80c-15 0 -25 10 -25 25v75c0 15 10 25 25 25h80c15 0 25 -10 25 -25zM285 110h100c10 0 20 -10 20 -20v-70
c0 -10 -10 -20 -20 -20h-335c-10 0 -20 10 -20 20v70c0 10 10 20 20 20h100v480h-100c-10 0 -20 10 -20 20v70c0 10 10 20 20 20h335c10 0 20 -10 20 -20v-70c0 -10 -10 -20 -20 -20h-100v-480z" />
    <glyph glyph-name="space" unicode=" " horiz-adv-x="280" 
 />
    <glyph glyph-name="afii10065" unicode="&#x430;" horiz-adv-x="702" 
d="M261 680c4 10 15 20 25 20h130c10 0 21 -10 25 -20l255 -660c4 -10 -5 -20 -15 -20h-100c-15 0 -27 10 -30 20l-45 130h-310l-45 -130c-4 -10 -15 -20 -30 -20h-100c-10 0 -19 10 -15 20zM348 550l-107 -290h220l-107 290h-6z" />
    <glyph glyph-name="afii10066" unicode="&#x431;" horiz-adv-x="715" 
d="M610 590h-385v-160h245c130 0 215 -85 215 -200v-40c0 -105 -85 -190 -215 -190h-360c-10 0 -20 10 -20 20v660c0 10 10 20 20 20h500c10 0 20 -10 20 -20v-70c0 -10 -10 -20 -20 -20zM227 320l-2 -210h225c60 0 100 40 100 95v10c0 65 -40 105 -100 105h-223z" />
    <glyph glyph-name="afii10067" unicode="&#x432;" horiz-adv-x="715" 
d="M110 700h310c140 0 220 -80 220 -190s-95 -140 -95 -140v-5s140 -25 140 -165c0 -120 -80 -200 -245 -200h-330c-10 0 -20 10 -20 20v660c0 10 10 20 20 20zM540 205v10c0 55 -40 95 -120 95h-195v-200h195c80 0 120 40 120 95zM500 495v10c0 45 -42 85 -100 85h-175
v-180h175c58 0 100 40 100 85z" />
    <glyph glyph-name="afii10068" unicode="&#x433;" 
d="M225 590v-570c0 -10 -10 -20 -20 -20h-95c-10 0 -20 10 -20 20v660c0 10 10 20 20 20h485c10 0 20 -10 20 -20v-70c0 -10 -10 -20 -20 -20h-370z" />
    <glyph glyph-name="afii10069" unicode="&#x434;" horiz-adv-x="795" 
d="M210 700h445c10 0 20 -10 20 -20v-570h75c10 0 20 -10 20 -20v-210c0 -10 -10 -20 -20 -20h-95c-10 0 -20 10 -20 20v120h-500v-120c0 -10 -10 -20 -20 -20h-95c-10 0 -20 10 -20 20v210c0 10 10 20 20 20h10c45 0 90 45 100 120l60 450c1 10 10 20 20 20zM310 590
l-45 -360c-9 -75 -55 -115 -55 -115v-5h330v480h-230z" />
    <glyph glyph-name="afii10070" unicode="&#x435;" horiz-adv-x="675" 
d="M225 110h410c10 0 20 -10 20 -20v-70c0 -10 -10 -20 -20 -20h-528c-10 0 -17 7 -17 17v663c0 10 10 20 20 20h515c10 0 20 -10 20 -20v-70c0 -10 -10 -20 -20 -20h-400v-180h280c10 0 20 -10 20 -20v-70c0 -10 -10 -20 -20 -20h-280v-190z" />
    <glyph glyph-name="afii10072" unicode="&#x436;" horiz-adv-x="1061" 
d="M463 415v265c0 10 10 20 20 20h95c10 0 20 -10 20 -20v-265h125l165 265c6 10 20 20 30 20h110c10 0 16 -10 10 -20l-200 -320l220 -340c6 -10 0 -20 -10 -20h-110c-10 0 -23 10 -30 20l-185 285h-125v-285c0 -10 -10 -20 -20 -20h-95c-10 0 -20 10 -20 20v285h-125
l-185 -285c-7 -10 -20 -20 -30 -20h-110c-10 0 -16 10 -10 20l220 340l-200 320c-6 10 0 20 10 20h110c10 0 24 -10 30 -20l165 -265h125z" />
    <glyph glyph-name="afii10073" unicode="&#x437;" 
d="M446 195c0 65 -46 105 -106 105h-155c-10 0 -20 10 -20 20v70c0 10 10 20 20 20h145c65 0 95 35 95 90c0 50 -39 90 -96 90h-259c-10 0 -20 10 -20 20v70c0 10 10 20 20 20h279c132 0 211 -80 211 -200c0 -110 -105 -140 -105 -140v-5s125 -35 125 -165
s-80 -210 -220 -210c-130 0 -325 50 -325 50c-10 2 -20 10 -20 20v75c0 10 10 20 20 20c0 0 195 -50 305 -50c60 0 106 40 106 100z" />
    <glyph glyph-name="afii10074" unicode="&#x438;" horiz-adv-x="790" 
d="M565 495h-5l-315 -475c-6 -10 -15 -20 -30 -20h-105c-10 0 -20 10 -20 20v660c0 10 10 20 20 20h95c10 0 20 -10 20 -20v-475h5l315 475c6 10 15 20 30 20h105c10 0 20 -10 20 -20v-660c0 -10 -10 -20 -20 -20h-95c-10 0 -20 10 -20 20v475z" />
    <glyph glyph-name="afii10075" unicode="&#x439;" horiz-adv-x="790" 
d="M325 910c0 -30 20 -50 50 -50h40c30 0 50 20 50 50v25c0 10 10 20 20 20h80c10 0 20 -10 20 -20v-25c0 -90 -60 -150 -155 -150h-70c-95 0 -155 60 -155 150v25c0 10 10 20 20 20h80c10 0 20 -10 20 -20v-25zM565 495h-5l-315 -475c-6 -10 -15 -20 -30 -20h-105
c-10 0 -20 10 -20 20v660c0 10 10 20 20 20h95c10 0 20 -10 20 -20v-475h5l315 475c6 10 15 20 30 20h105c10 0 20 -10 20 -20v-660c0 -10 -10 -20 -20 -20h-95c-10 0 -20 10 -20 20v475z" />
    <glyph glyph-name="afii10076" unicode="&#x43a;" horiz-adv-x="703" 
d="M90 20v660c0 10 10 20 20 20h95c10 0 20 -10 20 -20v-265h140l165 265c6 10 20 20 30 20h110c10 0 16 -10 10 -20l-200 -320l220 -340c6 -10 0 -20 -10 -20h-110c-10 0 -23 10 -30 20l-185 285h-140v-285c0 -10 -10 -20 -20 -20h-95c-10 0 -20 10 -20 20z" />
    <glyph glyph-name="afii10077" unicode="&#x43b;" horiz-adv-x="795" 
d="M235 700h450c10 0 20 -10 20 -20v-660c0 -10 -10 -20 -20 -20h-95c-10 0 -20 10 -20 20v570h-235l-45 -360c-20 -160 -105 -245 -230 -245c-30 0 -50 5 -50 5c-10 2 -20 10 -20 20v65c0 10 10 20 20 20c0 0 20 -5 40 -5c45 0 92 45 105 140l60 450c1 10 10 20 20 20z" />
    <glyph glyph-name="afii10078" unicode="&#x43c;" horiz-adv-x="985" 
d="M240 680l250 -380h5l250 380c7 10 15 20 30 20h100c10 0 20 -10 20 -20v-660c0 -10 -10 -20 -20 -20h-95c-10 0 -20 10 -20 20v450h-5l-205 -300c-7 -10 -15 -15 -25 -15h-65c-10 0 -18 5 -25 15l-205 300h-5v-450c0 -10 -10 -20 -20 -20h-95c-10 0 -20 10 -20 20v660
c0 10 10 20 20 20h100c15 0 23 -10 30 -20z" />
    <glyph glyph-name="afii10079" unicode="&#x43d;" horiz-adv-x="785" 
d="M560 300h-335v-280c0 -10 -10 -20 -20 -20h-95c-10 0 -20 10 -20 20v660c0 10 10 20 20 20h95c10 0 20 -10 20 -20v-270h335v270c0 10 10 20 20 20h95c10 0 20 -10 20 -20v-660c0 -10 -10 -20 -20 -20h-95c-10 0 -20 10 -20 20v280z" />
    <glyph glyph-name="afii10080" unicode="&#x43e;" horiz-adv-x="735" 
d="M675 515v-330c0 -120 -80 -200 -220 -200h-175c-140 0 -220 80 -220 200v330c0 120 80 200 220 200h175c140 0 220 -80 220 -200zM540 500c0 70 -35 105 -105 105h-135c-70 0 -105 -35 -105 -105v-300c0 -70 35 -105 105 -105h135c70 0 105 35 105 105v300z" />
    <glyph glyph-name="afii10081" unicode="&#x43f;" horiz-adv-x="785" 
d="M560 590h-335v-570c0 -10 -10 -20 -20 -20h-95c-10 0 -20 10 -20 20v660c0 10 10 20 20 20h565c10 0 20 -10 20 -20v-660c0 -10 -10 -20 -20 -20h-95c-10 0 -20 10 -20 20v570z" />
    <glyph glyph-name="afii10082" unicode="&#x440;" horiz-adv-x="720" 
d="M680 505v-80c0 -105 -90 -195 -230 -195h-225v-210c0 -10 -10 -20 -20 -20h-95c-10 0 -20 10 -20 20v660c0 10 10 20 20 20h340c140 0 230 -90 230 -195zM225 340h205c70 0 115 45 115 100v50c0 55 -45 100 -115 100h-205v-250z" />
    <glyph glyph-name="afii10083" unicode="&#x441;" horiz-adv-x="640" 
d="M280 700h295c10 0 20 -10 20 -20v-70c0 -10 -10 -20 -20 -20h-275c-55 0 -105 -50 -105 -110v-280c0 -60 45 -105 105 -105c110 0 305 50 305 50c10 0 20 -10 20 -20v-75c0 -10 -5 -16 -20 -20c0 0 -195 -50 -325 -50c-140 0 -220 80 -220 205v310c0 125 80 205 220 205z
" />
    <glyph glyph-name="afii10084" unicode="&#x442;" 
d="M375 590v-570c0 -10 -10 -20 -20 -20h-95c-10 0 -20 10 -20 20v570h-215c-10 0 -20 10 -20 20v70c0 10 10 20 20 20h565c10 0 20 -10 20 -20v-70c0 -10 -10 -20 -20 -20h-215z" />
    <glyph glyph-name="afii10085" unicode="&#x443;" horiz-adv-x="684" 
d="M272 175l-260 505c-5 10 0 20 14 20h106c15 0 25 -10 30 -20l190 -385h5l175 385c5 10 15 20 30 20h100c15 0 20 -10 15 -20l-235 -505c-58 -125 -125 -190 -240 -190c-40 0 -80 5 -80 5c-10 2 -20 10 -20 20v71c0 10 10 19 20 19c0 0 40 -5 65 -5c40 0 75 35 85 80z" />
    <glyph glyph-name="afii10086" unicode="&#x444;" horiz-adv-x="985" 
d="M560 45v-65c0 -10 -10 -20 -20 -20h-100c-10 0 -15 10 -15 20v65h-155c-140 0 -220 80 -220 200v220c0 120 80 200 220 200h155v65c0 10 5 20 15 20h100c10 0 20 -10 20 -20v-65h155c140 0 220 -80 220 -200v-220c0 -120 -80 -200 -220 -200h-155zM560 555v-400h135
c70 0 105 35 105 105v190c0 70 -35 105 -105 105h-135zM425 155v400h-135c-70 0 -105 -35 -105 -105v-190c0 -70 35 -105 105 -105h135z" />
    <glyph glyph-name="afii10087" unicode="&#x445;" horiz-adv-x="681" 
d="M338 270l-175 -250c-7 -10 -15 -20 -30 -20h-115c-10 0 -17 10 -10 20l240 340l-220 320c-6 10 0 20 10 20h115c15 0 23 -10 30 -20l155 -225h5l155 225c7 10 15 20 30 20h115c10 0 16 -10 10 -20l-220 -320l240 -340c7 -10 0 -20 -10 -20h-115c-15 0 -23 10 -30 20
l-175 250h-5z" />
    <glyph glyph-name="afii10088" unicode="&#x446;" horiz-adv-x="795" 
d="M110 0c-10 0 -20 10 -20 20v660c0 10 10 20 20 20h95c10 0 20 -10 20 -20v-570h315v570c0 10 10 20 20 20h95c10 0 20 -10 20 -20v-570h75c10 0 20 -10 20 -20v-210c0 -10 -10 -20 -20 -20h-95c-10 0 -20 10 -20 20v120h-525z" />
    <glyph glyph-name="afii10089" unicode="&#x447;" horiz-adv-x="745" 
d="M520 350v330c0 10 10 20 20 20h95c10 0 20 -10 20 -20v-660c0 -10 -10 -20 -20 -20h-95c-10 0 -20 10 -20 20v220h-230c-140 0 -220 80 -220 210v230c0 10 10 20 20 20h95c10 0 20 -10 20 -20v-215c0 -70 45 -115 105 -115h210z" />
    <glyph glyph-name="afii10090" unicode="&#x448;" horiz-adv-x="1115" 
d="M225 110h265v570c0 10 10 20 20 20h95c10 0 20 -10 20 -20v-570h265v570c0 10 10 20 20 20h95c10 0 20 -10 20 -20v-660c0 -10 -10 -20 -20 -20h-895c-10 0 -20 10 -20 20v660c0 10 10 20 20 20h95c10 0 20 -10 20 -20v-570z" />
    <glyph glyph-name="afii10091" unicode="&#x449;" horiz-adv-x="1145" 
d="M985 0h-875c-10 0 -20 10 -20 20v660c0 10 10 20 20 20h95c10 0 20 -10 20 -20v-570h265v570c0 10 10 20 20 20h95c10 0 20 -10 20 -20v-570h265v570c0 10 10 20 20 20h95c10 0 20 -10 20 -20v-570h75c10 0 20 -10 20 -20v-210c0 -10 -10 -20 -20 -20h-95
c-10 0 -20 10 -20 20v120z" />
    <glyph glyph-name="afii10092" unicode="&#x44a;" horiz-adv-x="780" 
d="M740 255v-60c0 -105 -90 -195 -230 -195h-325c-10 0 -20 10 -20 20v570h-145c-10 0 -20 10 -20 20v70c0 10 10 20 20 20h260c10 0 20 -10 20 -20v-230h210c140 0 230 -90 230 -195zM490 340h-190v-230h190c70 0 115 45 115 100v30c0 55 -45 100 -115 100z" />
    <glyph glyph-name="afii10093" unicode="&#x44b;" horiz-adv-x="1005" 
d="M915 680v-660c0 -10 -10 -20 -20 -20h-95c-10 0 -20 10 -20 20v660c0 10 10 20 20 20h95c10 0 20 -10 20 -20zM660 255v-60c0 -105 -90 -195 -230 -195h-320c-10 0 -20 10 -20 20v660c0 10 10 20 20 20h95c10 0 20 -10 20 -20v-230h205c140 0 230 -90 230 -195zM410 340
h-185v-230h185c70 0 115 45 115 100v30c0 55 -45 100 -115 100z" />
    <glyph glyph-name="afii10094" unicode="&#x44c;" horiz-adv-x="710" 
d="M670 255v-60c0 -105 -90 -195 -230 -195h-330c-10 0 -20 10 -20 20v660c0 10 10 20 20 20h95c10 0 20 -10 20 -20v-230h215c140 0 230 -90 230 -195zM420 340h-195v-230h195c70 0 115 45 115 100v30c0 55 -45 100 -115 100z" />
    <glyph glyph-name="afii10095" unicode="&#x44d;" horiz-adv-x="640" 
d="M65 700h295c140 0 220 -80 220 -205v-310c0 -125 -80 -205 -220 -205c-130 0 -325 50 -325 50c-15 4 -20 10 -20 20v75c0 10 10 20 20 20c0 0 195 -50 305 -50c60 0 105 45 105 105v100h-230c-10 0 -20 10 -20 20v70c0 10 10 20 20 20h230v70c0 60 -50 110 -105 110h-275
c-10 0 -20 10 -20 20v70c0 10 10 20 20 20z" />
    <glyph glyph-name="afii10096" unicode="&#x44e;" horiz-adv-x="1010" 
d="M950 515v-330c0 -120 -80 -200 -220 -200h-140c-140 0 -220 80 -220 200v115h-145v-280c0 -10 -10 -20 -20 -20h-95c-10 0 -20 10 -20 20v660c0 10 10 20 20 20h95c10 0 20 -10 20 -20v-270h145v105c0 120 80 200 220 200h140c140 0 220 -80 220 -200zM815 500
c0 70 -35 105 -105 105h-100c-70 0 -105 -35 -105 -105v-300c0 -70 35 -105 105 -105h100c70 0 105 35 105 105v300z" />
    <glyph glyph-name="afii10097" unicode="&#x44f;" horiz-adv-x="753" 
d="M73 465v40c0 105 90 195 230 195h340c10 0 20 -10 20 -20v-660c0 -10 -10 -20 -20 -20h-95c-10 0 -20 10 -20 20v250h-185l-160 -250c-6 -10 -15 -20 -30 -20h-110c-10 0 -17 10 -10 20l175 265v5s-135 40 -135 175zM323 380h205v210h-205c-70 0 -115 -45 -115 -100v-10
c0 -55 45 -100 115 -100z" />
    <glyph glyph-name="a" unicode="a" horiz-adv-x="702" 
d="M261 680c4 10 15 20 25 20h130c10 0 21 -10 25 -20l255 -660c4 -10 -5 -20 -15 -20h-100c-15 0 -27 10 -30 20l-45 130h-310l-45 -130c-4 -10 -15 -20 -30 -20h-100c-10 0 -19 10 -15 20zM348 550l-107 -290h220l-107 290h-6z" />
    <glyph glyph-name="b" unicode="b" horiz-adv-x="715" 
d="M110 700h310c140 0 220 -80 220 -190s-95 -140 -95 -140v-5s140 -25 140 -165c0 -120 -80 -200 -245 -200h-330c-10 0 -20 10 -20 20v660c0 10 10 20 20 20zM540 205v10c0 55 -40 95 -120 95h-195v-200h195c80 0 120 40 120 95zM500 495v10c0 45 -42 85 -100 85h-175
v-180h175c58 0 100 40 100 85z" />
    <glyph glyph-name="c" unicode="c" horiz-adv-x="640" 
d="M280 700h295c10 0 20 -10 20 -20v-70c0 -10 -10 -20 -20 -20h-275c-55 0 -105 -50 -105 -110v-280c0 -60 45 -105 105 -105c110 0 305 50 305 50c10 0 20 -10 20 -20v-75c0 -10 -5 -16 -20 -20c0 0 -195 -50 -325 -50c-140 0 -220 80 -220 205v310c0 125 80 205 220 205z
" />
    <glyph glyph-name="d" unicode="d" horiz-adv-x="740" 
d="M680 495v-290c0 -115 -90 -205 -225 -205h-345c-10 0 -20 10 -20 20v660c0 10 10 20 20 20h345c135 0 225 -90 225 -205zM545 480c0 65 -45 110 -120 110h-200v-480h210c64 0 110 45 110 120v250z" />
    <glyph glyph-name="e" unicode="e" horiz-adv-x="675" 
d="M225 110h410c10 0 20 -10 20 -20v-70c0 -10 -10 -20 -20 -20h-528c-10 0 -17 7 -17 17v663c0 10 10 20 20 20h515c10 0 20 -10 20 -20v-70c0 -10 -10 -20 -20 -20h-400v-180h280c10 0 20 -10 20 -20v-70c0 -10 -10 -20 -20 -20h-280v-190z" />
    <glyph glyph-name="f" unicode="f" horiz-adv-x="645" 
d="M225 265v-245c0 -10 -10 -20 -20 -20h-95c-10 0 -20 10 -20 20v660c0 10 10 20 20 20h505c10 0 20 -10 20 -20v-70c0 -10 -10 -20 -20 -20h-390v-215h270c10 0 20 -10 20 -20v-70c0 -10 -10 -20 -20 -20h-270z" />
    <glyph glyph-name="g" unicode="g" horiz-adv-x="715" 
d="M280 700h295c10 0 20 -10 20 -20v-70c0 -10 -10 -20 -20 -20h-275c-55 0 -105 -50 -105 -110v-280c0 -60 45 -105 105 -105c80 0 230 35 230 35v165h-150c-10 0 -20 10 -20 20v70c0 10 10 20 20 20h260c10 0 20 -10 20 -20v-325c0 -10 -10 -17 -20 -20
c0 0 -230 -60 -360 -60c-140 0 -220 80 -220 205v310c0 125 80 205 220 205z" />
    <glyph glyph-name="h" unicode="h" horiz-adv-x="785" 
d="M560 300h-335v-280c0 -10 -10 -20 -20 -20h-95c-10 0 -20 10 -20 20v660c0 10 10 20 20 20h95c10 0 20 -10 20 -20v-270h335v270c0 10 10 20 20 20h95c10 0 20 -10 20 -20v-660c0 -10 -10 -20 -20 -20h-95c-10 0 -20 10 -20 20v280z" />
    <glyph glyph-name="i" unicode="i" horiz-adv-x="435" 
d="M285 110h100c10 0 20 -10 20 -20v-70c0 -10 -10 -20 -20 -20h-335c-10 0 -20 10 -20 20v70c0 10 10 20 20 20h100v480h-100c-10 0 -20 10 -20 20v70c0 10 10 20 20 20h335c10 0 20 -10 20 -20v-70c0 -10 -10 -20 -20 -20h-100v-480z" />
    <glyph glyph-name="j" unicode="j" horiz-adv-x="515" 
d="M295 200v390h-175c-10 0 -20 10 -20 20v70c0 10 10 20 20 20h290c10 0 20 -10 20 -20v-495c0 -125 -80 -205 -220 -205c-75 0 -180 20 -180 20c-10 2 -20 10 -20 20v75c0 10 10 20 20 20c0 0 94 -20 160 -20c60 0 105 45 105 105z" />
    <glyph glyph-name="k" unicode="k" horiz-adv-x="703" 
d="M90 20v660c0 10 10 20 20 20h95c10 0 20 -10 20 -20v-265h140l165 265c6 10 20 20 30 20h110c10 0 16 -10 10 -20l-200 -320l220 -340c6 -10 0 -20 -10 -20h-110c-10 0 -23 10 -30 20l-185 285h-140v-285c0 -10 -10 -20 -20 -20h-95c-10 0 -20 10 -20 20z" />
    <glyph glyph-name="l" unicode="l" horiz-adv-x="625" 
d="M225 680v-570h380c10 0 20 -10 20 -20v-70c0 -10 -10 -20 -20 -20h-495c-10 0 -20 10 -20 20v660c0 10 10 20 20 20h95c10 0 20 -10 20 -20z" />
    <glyph glyph-name="m" unicode="m" horiz-adv-x="985" 
d="M240 680l250 -380h5l250 380c7 10 15 20 30 20h100c10 0 20 -10 20 -20v-660c0 -10 -10 -20 -20 -20h-95c-10 0 -20 10 -20 20v450h-5l-205 -300c-7 -10 -15 -15 -25 -15h-65c-10 0 -18 5 -25 15l-205 300h-5v-450c0 -10 -10 -20 -20 -20h-95c-10 0 -20 10 -20 20v660
c0 10 10 20 20 20h100c15 0 23 -10 30 -20z" />
    <glyph glyph-name="n" unicode="n" horiz-adv-x="780" 
d="M230 480h-5v-460c0 -10 -10 -20 -20 -20h-95c-10 0 -20 10 -20 20v660c0 10 10 20 20 20h100c15 0 23 -10 30 -20l310 -460h5v460c0 10 10 20 20 20h95c10 0 20 -10 20 -20v-660c0 -10 -10 -20 -20 -20h-100c-15 0 -23 10 -30 20z" />
    <glyph glyph-name="o" unicode="o" horiz-adv-x="735" 
d="M675 515v-330c0 -120 -80 -200 -220 -200h-175c-140 0 -220 80 -220 200v330c0 120 80 200 220 200h175c140 0 220 -80 220 -200zM540 500c0 70 -35 105 -105 105h-135c-70 0 -105 -35 -105 -105v-300c0 -70 35 -105 105 -105h135c70 0 105 35 105 105v300z" />
    <glyph glyph-name="p" unicode="p" horiz-adv-x="720" 
d="M680 505v-80c0 -105 -90 -195 -230 -195h-225v-210c0 -10 -10 -20 -20 -20h-95c-10 0 -20 10 -20 20v660c0 10 10 20 20 20h340c140 0 230 -90 230 -195zM225 340h205c70 0 115 45 115 100v50c0 55 -45 100 -115 100h-205v-250z" />
    <glyph glyph-name="q" unicode="q" horiz-adv-x="735" 
d="M675 515v-330c0 -120 -80 -200 -220 -200h-20v-10c0 -45 25 -70 65 -70c45 0 105 1 105 1c10 0 20 -10 20 -20v-46c0 -12 -10 -16 -20 -20c0 0 -56 -20 -120 -20c-115 0 -180 65 -180 175v10h-25c-140 0 -220 80 -220 200v330c0 120 80 200 220 200h175
c140 0 220 -80 220 -200zM540 500c0 70 -35 105 -105 105h-135c-70 0 -105 -35 -105 -105v-300c0 -70 35 -105 105 -105h135c70 0 105 35 105 105v300z" />
    <glyph glyph-name="r" unicode="r" horiz-adv-x="733" 
d="M680 505v-50c0 -135 -135 -175 -135 -175v-5l175 -255c7 -10 0 -20 -10 -20h-110c-15 0 -24 10 -30 20l-160 240h-185v-240c0 -10 -10 -20 -20 -20h-95c-10 0 -20 10 -20 20v660c0 10 10 20 20 20h340c140 0 230 -90 230 -195zM225 370h205c70 0 115 45 115 100v20
c0 55 -45 100 -115 100h-205v-220z" />
    <glyph glyph-name="s" unicode="s" horiz-adv-x="620" 
d="M449 180c0 155 -394 60 -394 331c0 109 80 189 210 189h280c10 0 20 -10 20 -20v-70c0 -10 -10 -20 -20 -20h-260c-56 0 -95 -40 -95 -80c0 -155 395 -60 395 -330c0 -120 -81 -200 -220 -200c-130 0 -325 50 -325 50c-15 4 -20 10 -20 20v75c0 10 10 20 20 20
c0 0 195 -50 305 -50c60 0 104 40 104 85z" />
    <glyph glyph-name="t" unicode="t" 
d="M375 590v-570c0 -10 -10 -20 -20 -20h-95c-10 0 -20 10 -20 20v570h-215c-10 0 -20 10 -20 20v70c0 10 10 20 20 20h565c10 0 20 -10 20 -20v-70c0 -10 -10 -20 -20 -20h-215z" />
    <glyph glyph-name="u" unicode="u" horiz-adv-x="770" 
d="M445 95c60 0 105 50 105 105v480c0 10 10 20 20 20h95c10 0 20 -10 20 -20v-495c0 -115 -85 -200 -220 -200h-160c-135 0 -220 85 -220 200v495c0 10 10 20 20 20h95c10 0 20 -10 20 -20v-480c0 -55 45 -105 105 -105h120z" />
    <glyph glyph-name="v" unicode="v" horiz-adv-x="687" 
d="M346 150l190 530c4 10 15 20 25 20h105c12 0 18 -11 15 -20l-245 -660c-4 -10 -15 -20 -25 -20h-135c-10 0 -21 10 -25 20l-245 660c-3 9 3 20 15 20h105c10 0 21 -10 25 -20l190 -530h5z" />
    <glyph glyph-name="w" unicode="w" horiz-adv-x="1047" 
d="M521 500l-140 -480c-3 -10 -10 -20 -25 -20h-125c-15 0 -22 10 -25 20l-190 660c-3 10 5 20 15 20h100c15 0 22 -10 25 -20l145 -495h5l140 495c3 10 10 20 25 20h105c15 0 22 -10 25 -20l140 -495h5l145 495c3 10 10 20 25 20h100c10 0 18 -10 15 -20l-190 -660
c-3 -10 -10 -20 -25 -20h-125c-15 0 -22 10 -25 20l-140 480h-5z" />
    <glyph glyph-name="x" unicode="x" horiz-adv-x="681" 
d="M338 270l-175 -250c-7 -10 -15 -20 -30 -20h-115c-10 0 -17 10 -10 20l240 340l-220 320c-6 10 0 20 10 20h115c15 0 23 -10 30 -20l155 -225h5l155 225c7 10 15 20 30 20h115c10 0 16 -10 10 -20l-220 -320l240 -340c7 -10 0 -20 -10 -20h-115c-15 0 -23 10 -30 20
l-175 250h-5z" />
    <glyph glyph-name="y" unicode="y" horiz-adv-x="671" 
d="M333 365h5l185 315c6 10 15 20 30 20h105c10 0 16 -10 10 -20l-265 -450v-210c0 -10 -10 -20 -20 -20h-95c-10 0 -20 10 -20 20v210l-265 450c-6 10 0 20 10 20h105c15 0 24 -10 30 -20z" />
    <glyph glyph-name="z" unicode="z" 
d="M45 700h525c10 0 20 -10 20 -20v-70c0 -20 -6 -30 -15 -40l-380 -453v-7h385c10 0 20 -10 20 -20v-70c0 -10 -10 -20 -20 -20h-545c-10 0 -20 10 -20 20v75c0 15 6 25 15 35l380 455v5h-365c-10 0 -20 10 -20 20v70c0 10 10 20 20 20z" />
    <glyph glyph-name="afii10100" unicode="&#x453;" 
d="M395 960h85c10 0 17 -10 10 -20l-90 -140c-6 -10 -15 -20 -30 -20h-55c-10 0 -15 10 -10 20l60 140c5 10 15 20 30 20zM225 590v-570c0 -10 -10 -20 -20 -20h-95c-10 0 -20 10 -20 20v660c0 10 10 20 20 20h485c10 0 20 -10 20 -20v-70c0 -10 -10 -20 -20 -20h-370z" />
    <glyph glyph-name="afii10099" unicode="&#x452;" horiz-adv-x="780" 
d="M305 590v-160h215c140 0 220 -80 220 -200v-85c0 -100 -60 -160 -170 -160c-50 0 -90 10 -90 10c-10 2 -20 10 -20 20v75c0 10 10 20 20 20c0 0 40 -10 70 -10c35 0 55 20 55 60v55c0 70 -35 105 -105 105h-195v-300c0 -10 -10 -20 -20 -20h-95c-10 0 -20 10 -20 20v570
h-150c-10 0 -20 10 -20 20v70c0 10 10 20 20 20h460c10 0 20 -10 20 -20v-70c0 -10 -10 -20 -20 -20h-175z" />
    <glyph glyph-name="afii10106" unicode="&#x459;" horiz-adv-x="1115" 
d="M1075 255v-60c0 -105 -90 -195 -230 -195h-290c-10 0 -20 10 -20 20v570h-200l-45 -360c-20 -160 -105 -245 -230 -245c-30 0 -50 5 -50 5c-15 3 -20 13 -20 20v65c0 10 10 20 20 20c0 0 20 -5 40 -5c40 0 93 50 105 140l60 450c1 10 10 20 20 20h415c10 0 20 -10 20 -20
v-230h175c140 0 230 -90 230 -195zM825 340h-155v-230h155c70 0 115 45 115 100v30c0 55 -45 100 -115 100z" />
    <glyph glyph-name="afii10107" unicode="&#x45a;" horiz-adv-x="1095" 
d="M505 320h-280v-300c0 -10 -10 -20 -20 -20h-95c-10 0 -20 10 -20 20v660c0 10 10 20 20 20h95c10 0 20 -10 20 -20v-250h280v250c0 10 10 20 20 20h95c10 0 20 -10 20 -20v-250h185c140 0 230 -90 230 -195v-40c0 -105 -90 -195 -230 -195h-300c-10 0 -20 10 -20 20v300z
M805 320h-165v-210h165c70 0 115 45 115 100v10c0 55 -45 100 -115 100z" />
    <glyph glyph-name="afii10109" unicode="&#x45c;" horiz-adv-x="703" 
d="M413 960h85c10 0 17 -10 10 -20l-90 -140c-6 -10 -15 -20 -30 -20h-55c-10 0 -15 10 -10 20l60 140c5 10 15 20 30 20zM90 20v660c0 10 10 20 20 20h95c10 0 20 -10 20 -20v-265h140l165 265c6 10 20 20 30 20h110c10 0 16 -10 10 -20l-200 -320l220 -340
c6 -10 0 -20 -10 -20h-110c-10 0 -23 10 -30 20l-185 285h-140v-285c0 -10 -10 -20 -20 -20h-95c-10 0 -20 10 -20 20z" />
    <glyph glyph-name="afii10108" unicode="&#x45b;" horiz-adv-x="800" 
d="M305 590v-160h215c140 0 220 -80 220 -200v-210c0 -10 -10 -20 -20 -20h-95c-10 0 -20 10 -20 20v195c0 70 -35 105 -105 105h-195v-300c0 -10 -10 -20 -20 -20h-95c-10 0 -20 10 -20 20v570h-150c-10 0 -20 10 -20 20v70c0 10 10 20 20 20h460c10 0 20 -10 20 -20v-70
c0 -10 -10 -20 -20 -20h-175z" />
    <glyph glyph-name="afii10193" unicode="&#x45f;" horiz-adv-x="785" 
d="M225 110h335v570c0 10 10 20 20 20h95c10 0 20 -10 20 -20v-660c0 -10 -10 -20 -20 -20h-215v-120c0 -10 -10 -20 -20 -20h-95c-10 0 -20 10 -20 20v120h-215c-10 0 -20 10 -20 20v660c0 10 10 20 20 20h95c10 0 20 -10 20 -20v-570z" />
    <glyph glyph-name="afii10110" unicode="&#x45e;" horiz-adv-x="684" 
d="M282 920c0 -30 20 -50 50 -50h40c30 0 50 20 50 50v25c0 10 10 20 20 20h80c10 0 20 -10 20 -20v-25c0 -90 -60 -150 -155 -150h-70c-95 0 -155 60 -155 150v25c0 10 10 20 20 20h80c10 0 20 -10 20 -20v-25zM272 175l-260 505c-5 10 0 20 14 20h106c15 0 25 -10 30 -20
l190 -385h5l175 385c5 10 15 20 30 20h100c15 0 20 -10 15 -20l-235 -505c-58 -125 -125 -190 -240 -190c-40 0 -80 5 -80 5c-10 2 -20 10 -20 20v71c0 10 10 19 20 19c0 0 40 -5 65 -5c40 0 75 35 85 80z" />
    <glyph glyph-name="afii10103" unicode="&#x456;" horiz-adv-x="435" 
d="M285 110h100c10 0 20 -10 20 -20v-70c0 -10 -10 -20 -20 -20h-335c-10 0 -20 10 -20 20v70c0 10 10 20 20 20h100v480h-100c-10 0 -20 10 -20 20v70c0 10 10 20 20 20h335c10 0 20 -10 20 -20v-70c0 -10 -10 -20 -20 -20h-100v-480z" />
    <glyph glyph-name="afii10098" unicode="&#x491;" horiz-adv-x="610" 
d="M225 590v-570c0 -10 -10 -20 -20 -20h-95c-10 0 -20 10 -20 20v660c0 10 10 20 20 20h365v70c0 10 10 20 20 20h95c10 0 20 -10 20 -20v-160c0 -10 -10 -20 -20 -20h-365z" />
    <glyph glyph-name="afii10071" unicode="&#x451;" horiz-adv-x="675" 
d="M330 900v-75c0 -15 -9 -25 -25 -25h-80c-15 0 -25 10 -25 25v75c0 15 10 25 25 25h80c15 0 25 -10 25 -25zM540 900v-75c0 -15 -9 -25 -25 -25h-80c-15 0 -25 10 -25 25v75c0 15 10 25 25 25h80c15 0 25 -10 25 -25zM225 110h410c10 0 20 -10 20 -20v-70
c0 -10 -10 -20 -20 -20h-528c-10 0 -17 7 -17 17v663c0 10 10 20 20 20h515c10 0 20 -10 20 -20v-70c0 -10 -10 -20 -20 -20h-400v-180h280c10 0 20 -10 20 -20v-70c0 -10 -10 -20 -20 -20h-280v-190z" />
    <glyph glyph-name="afii10101" unicode="&#x454;" horiz-adv-x="640" 
d="M280 700h295c10 0 20 -10 20 -20v-70c0 -10 -10 -20 -20 -20h-275c-55 0 -105 -50 -105 -110v-70h230c10 0 20 -10 20 -20v-70c0 -10 -10 -20 -20 -20h-230v-100c0 -60 45 -105 105 -105c110 0 305 50 305 50c10 0 20 -10 20 -20v-75c0 -10 -5 -16 -20 -20
c0 0 -195 -50 -325 -50c-140 0 -220 80 -220 205v310c0 125 80 205 220 205z" />
    <glyph glyph-name="afii10105" unicode="&#x458;" horiz-adv-x="515" 
d="M295 200v390h-175c-10 0 -20 10 -20 20v70c0 10 10 20 20 20h290c10 0 20 -10 20 -20v-495c0 -125 -80 -205 -220 -205c-75 0 -180 20 -180 20c-10 2 -20 10 -20 20v75c0 10 10 20 20 20c0 0 94 -20 160 -20c60 0 105 45 105 105z" />
    <glyph glyph-name="afii10102" unicode="&#x455;" horiz-adv-x="620" 
d="M449 180c0 155 -394 60 -394 331c0 109 80 189 210 189h280c10 0 20 -10 20 -20v-70c0 -10 -10 -20 -20 -20h-260c-56 0 -95 -40 -95 -80c0 -155 395 -60 395 -330c0 -120 -81 -200 -220 -200c-130 0 -325 50 -325 50c-15 4 -20 10 -20 20v75c0 10 10 20 20 20
c0 0 195 -50 305 -50c60 0 104 40 104 85z" />
    <glyph glyph-name="afii10104" unicode="&#x457;" horiz-adv-x="435" 
d="M177 900v-75c0 -15 -9 -25 -25 -25h-80c-15 0 -25 10 -25 25v75c0 15 10 25 25 25h80c15 0 25 -10 25 -25zM387 900v-75c0 -15 -9 -25 -25 -25h-80c-15 0 -25 10 -25 25v75c0 15 10 25 25 25h80c15 0 25 -10 25 -25zM285 110h100c10 0 20 -10 20 -20v-70
c0 -10 -10 -20 -20 -20h-335c-10 0 -20 10 -20 20v70c0 10 10 20 20 20h100v480h-100c-10 0 -20 10 -20 20v70c0 10 10 20 20 20h335c10 0 20 -10 20 -20v-70c0 -10 -10 -20 -20 -20h-100v-480z" />
    <glyph glyph-name="M" unicode="M" horiz-adv-x="985" 
d="M240 680l250 -380h5l250 380c7 10 15 20 30 20h100c10 0 20 -10 20 -20v-660c0 -10 -10 -20 -20 -20h-95c-10 0 -20 10 -20 20v450h-5l-205 -300c-7 -10 -15 -15 -25 -15h-65c-10 0 -18 5 -25 15l-205 300h-5v-450c0 -10 -10 -20 -20 -20h-95c-10 0 -20 10 -20 20v660
c0 10 10 20 20 20h100c15 0 23 -10 30 -20z" />
    </font>
</defs>
</svg>
